<svg width="41" height="42" viewBox="0 0 41 42" fill="none" xmlns="http://www.w3.org/2000/svg">
<g clip-path="url(#clip0_11_407)">
<path d="M27.3821 11.2417H19.1818C18.7532 11.2406 18.3425 11.0698 18.0394 10.7667C17.7364 10.4637 17.5656 10.0529 17.5645 9.62435V4.28831C17.5656 3.86011 17.7365 3.44984 18.0397 3.14747C18.3429 2.84509 18.7536 2.67529 19.1818 2.67529H27.3821C27.8103 2.67529 28.221 2.84509 28.5242 3.14747C28.8274 3.44984 28.9983 3.86011 28.9994 4.28831V9.62435C28.9994 10.0533 28.829 10.4647 28.5257 10.768C28.2224 11.0713 27.811 11.2417 27.3821 11.2417ZM19.1818 3.32922C18.9271 3.32922 18.6827 3.43012 18.5021 3.60986C18.3215 3.7896 18.2195 4.03354 18.2184 4.28831V9.62435C18.2229 9.87684 18.3265 10.1174 18.5067 10.2944C18.6868 10.4713 18.9293 10.5704 19.1818 10.5704H27.3821C27.6331 10.5681 27.8733 10.468 28.0516 10.2913C28.2299 10.1146 28.3323 9.87533 28.3368 9.62435V4.28831C28.3356 4.03354 28.2336 3.7896 28.0531 3.60986C27.8725 3.43012 27.6281 3.32922 27.3733 3.32922H19.1818Z" fill="#58F93B" stroke="#58F93B" stroke-width="0.75"/>
<path d="M23.2754 7.911C22.9522 7.91203 22.6407 7.79052 22.4035 7.57095L18.0832 3.59508C18.023 3.53323 17.9894 3.45033 17.9894 3.36403C17.9894 3.27773 18.023 3.19483 18.0832 3.13298C18.1445 3.07175 18.2276 3.03735 18.3143 3.03735C18.4009 3.03735 18.484 3.07175 18.5453 3.13298L22.8482 7.08269C22.9657 7.19463 23.1218 7.25707 23.2841 7.25707C23.4464 7.25707 23.6025 7.19463 23.7201 7.08269L28.0403 3.08502C28.0704 3.04934 28.1076 3.02049 28.1497 3.00041C28.1918 2.98032 28.2377 2.96947 28.2843 2.96857C28.3309 2.96767 28.3771 2.97675 28.42 2.9952C28.4628 3.01364 28.5012 3.04103 28.5325 3.07553C28.5639 3.11003 28.5875 3.15083 28.6018 3.1952C28.6161 3.23958 28.6207 3.28649 28.6154 3.33281C28.6101 3.37912 28.5949 3.42376 28.5709 3.46374C28.5469 3.50371 28.5147 3.53809 28.4763 3.56457L24.156 7.56224C23.918 7.78705 23.6028 7.91189 23.2754 7.911Z" fill="#58F93B" stroke="#58F93B" stroke-width="0.75"/>
<path d="M38.6296 20.7583H30.7825C30.3046 20.7583 29.8462 20.5688 29.5078 20.2312C29.1695 19.8937 28.9788 19.4358 28.9776 18.9578V13.9967C28.9788 13.5184 29.1693 13.06 29.5075 12.7218C29.8458 12.3836 30.3042 12.193 30.7825 12.1919H38.6296C39.1079 12.193 39.5663 12.3836 39.9045 12.7218C40.2428 13.06 40.4333 13.5184 40.4344 13.9967V18.9578C40.4333 19.4358 40.2426 19.8937 39.9043 20.2312C39.5659 20.5688 39.1075 20.7583 38.6296 20.7583ZM30.7825 12.8458C30.4795 12.8493 30.1901 12.972 29.9771 13.1875C29.7641 13.403 29.6446 13.6937 29.6446 13.9967V18.9578C29.6458 19.2623 29.7676 19.554 29.9833 19.7688C30.199 19.9837 30.4911 20.1044 30.7956 20.1044H38.6427C38.9472 20.1044 39.2392 19.9837 39.455 19.7688C39.6707 19.554 39.7924 19.2623 39.7936 18.9578V13.9967C39.7936 13.6915 39.6723 13.3988 39.4565 13.1829C39.2407 12.9671 38.9479 12.8458 38.6427 12.8458H30.7825Z" fill="#58F93B" stroke="#58F93B" stroke-width="0.75"/>
<path d="M34.0347 18.4914C33.9084 18.4912 33.7841 18.4597 33.6728 18.3999C33.5551 18.335 33.457 18.2397 33.3887 18.1239C33.3204 18.008 33.2846 17.876 33.2848 17.7416V15.2087C33.2846 15.0739 33.3207 14.9416 33.3893 14.8256C33.4579 14.7096 33.5565 14.6142 33.6747 14.5496C33.793 14.4849 33.9264 14.4532 34.0611 14.458C34.1958 14.4627 34.3267 14.5037 34.4401 14.5766L36.428 15.8408C36.5352 15.9084 36.6235 16.002 36.6847 16.1129C36.7459 16.2238 36.778 16.3485 36.778 16.4751C36.778 16.6018 36.7459 16.7264 36.6847 16.8374C36.6235 16.9483 36.5352 17.0419 36.428 17.1095L34.4401 18.3781C34.3179 18.4523 34.1776 18.4915 34.0347 18.4914ZM34.0347 15.1128C34.0192 15.1071 34.0022 15.1071 33.9867 15.1128C33.9707 15.1198 33.9572 15.1314 33.9478 15.1462C33.9385 15.1609 33.9338 15.1782 33.9344 15.1956V17.7285C33.934 17.746 33.9383 17.7632 33.9469 17.7784C33.9556 17.7936 33.9682 17.8062 33.9835 17.8147C33.9988 17.8232 34.0161 17.8274 34.0335 17.8268C34.051 17.8262 34.068 17.8209 34.0826 17.8113L36.0749 16.5471C36.0887 16.5381 36.0999 16.5258 36.1075 16.5113C36.1151 16.4968 36.1189 16.4806 36.1185 16.4642C36.1199 16.4477 36.1165 16.4312 36.1088 16.4165C36.1011 16.4018 36.0893 16.3897 36.0749 16.3814L34.0826 15.1128H34.0347Z" fill="#58F93B" stroke="#58F93B" stroke-width="0.75"/>
<path d="M36.4324 32.4114H28.5853C28.1115 32.408 27.6579 32.2188 27.3221 31.8846C26.9862 31.5504 26.7949 31.0978 26.7892 30.624V25.6454C26.7903 25.1671 26.9808 24.7087 27.3191 24.3705C27.6573 24.0322 28.1157 23.8417 28.594 23.8406H36.4411C36.9194 23.8417 37.3778 24.0322 37.7161 24.3705C38.0543 24.7087 38.2448 25.1671 38.246 25.6454V30.624C38.2402 31.1008 38.0465 31.556 37.7069 31.8907C37.3672 32.2254 36.9092 32.4125 36.4324 32.4114ZM28.5853 24.4945C28.2854 24.5025 28.0004 24.6272 27.7911 24.8422C27.5818 25.0572 27.4648 25.3454 27.4649 25.6454V30.624C27.466 30.9289 27.5877 31.2209 27.8033 31.4365C28.0188 31.6521 28.3109 31.7737 28.6158 31.7749H36.4629C36.7625 31.7658 37.0468 31.6407 37.2558 31.426C37.4649 31.2112 37.5823 30.9237 37.5833 30.624V25.6454C37.5833 25.4943 37.5535 25.3446 37.4957 25.205C37.4379 25.0653 37.3531 24.9385 37.2462 24.8316C37.1393 24.7247 37.0125 24.6399 36.8728 24.5821C36.7332 24.5243 36.5835 24.4945 36.4324 24.4945H28.5853Z" fill="#58F93B" stroke="#58F93B" stroke-width="0.75"/>
<path d="M32.5132 28.2786C32.2142 28.2821 31.9208 28.1966 31.6705 28.033C31.4202 27.8693 31.2241 27.635 31.1073 27.3597C30.9904 27.0844 30.9581 26.7806 31.0143 26.4868C31.0705 26.1931 31.2128 25.9227 31.423 25.71C31.6332 25.4973 31.902 25.3519 32.195 25.2922C32.4881 25.2326 32.7923 25.2615 33.0689 25.3751C33.3455 25.4887 33.5822 25.682 33.7487 25.9305C33.9152 26.1789 34.0041 26.4712 34.0042 26.7703C34.0042 27.1673 33.8477 27.5483 33.5685 27.8307C33.2894 28.1131 32.9102 28.2741 32.5132 28.2786ZM32.5132 25.9158C32.3408 25.9158 32.1722 25.9669 32.0288 26.0627C31.8854 26.1585 31.7737 26.2947 31.7077 26.454C31.6417 26.6133 31.6244 26.7887 31.6581 26.9578C31.6917 27.1269 31.7747 27.2823 31.8967 27.4042C32.0186 27.5262 32.174 27.6092 32.3431 27.6428C32.5122 27.6765 32.6876 27.6592 32.8469 27.5932C33.0062 27.5272 33.1424 27.4155 33.2382 27.2721C33.334 27.1287 33.3851 26.9601 33.3851 26.7877C33.3851 26.5564 33.2933 26.3347 33.1297 26.1712C32.9662 26.0076 32.7445 25.9158 32.5132 25.9158Z" fill="#58F93B" stroke="#58F93B" stroke-width="0.75"/>
<path d="M32.5132 29.3772C31.8913 29.3762 31.29 29.1537 30.8174 28.7494C30.7847 28.7208 30.758 28.6861 30.7389 28.6471C30.7197 28.6082 30.7083 28.5659 30.7055 28.5225C30.7027 28.4792 30.7084 28.4358 30.7223 28.3947C30.7363 28.3536 30.7582 28.3156 30.7868 28.283C30.8155 28.2503 30.8502 28.2237 30.8892 28.2045C30.9281 28.1853 30.9704 28.1739 31.0137 28.1711C31.0571 28.1683 31.1005 28.174 31.1416 28.188C31.1827 28.2019 31.2207 28.2238 31.2533 28.2525C31.6107 28.5465 32.0591 28.7073 32.5219 28.7073C32.9847 28.7073 33.4332 28.5465 33.7905 28.2525C33.8232 28.2238 33.8611 28.2019 33.9022 28.188C33.9433 28.174 33.9868 28.1683 34.0301 28.1711C34.0734 28.1739 34.1157 28.1853 34.1547 28.2045C34.1936 28.2237 34.2284 28.2503 34.257 28.283C34.2856 28.3156 34.3075 28.3536 34.3215 28.3947C34.3355 28.4358 34.3412 28.4792 34.3384 28.5225C34.3355 28.5659 34.3242 28.6082 34.305 28.6471C34.2858 28.6861 34.2591 28.7208 34.2265 28.7494C33.7493 29.1576 33.1411 29.3804 32.5132 29.3772Z" fill="#58F93B" stroke="#58F93B" stroke-width="0.75"/>
<path d="M30.2332 30.5586C30.1468 30.5575 30.0643 30.5227 30.0032 30.4616C29.9422 30.4006 29.9073 30.318 29.9062 30.2317C29.9069 29.8557 29.9887 29.4842 30.1459 29.1427C30.3031 28.8011 30.5322 28.4975 30.8174 28.2525C30.85 28.2238 30.8879 28.2019 30.929 28.188C30.9701 28.174 31.0136 28.1683 31.0569 28.1711C31.1002 28.1739 31.1426 28.1853 31.1815 28.2045C31.2204 28.2237 31.2552 28.2503 31.2838 28.283C31.3125 28.3156 31.3344 28.3536 31.3483 28.3947C31.3623 28.4358 31.368 28.4792 31.3652 28.5225C31.3623 28.5659 31.351 28.6082 31.3318 28.6471C31.3126 28.6861 31.2859 28.7208 31.2533 28.7494C31.0384 28.9319 30.8658 29.1591 30.7476 29.4151C30.6294 29.671 30.5684 29.9497 30.5689 30.2317C30.5689 30.2754 30.5601 30.3186 30.5432 30.3589C30.5262 30.3991 30.5013 30.4355 30.47 30.466C30.4387 30.4965 30.4017 30.5204 30.361 30.5363C30.3203 30.5522 30.2768 30.5598 30.2332 30.5586Z" fill="#58F93B" stroke="#58F93B" stroke-width="0.75"/>
<path d="M34.7932 30.5586C34.7065 30.5586 34.6233 30.5242 34.562 30.4629C34.5007 30.4016 34.4663 30.3184 34.4663 30.2317C34.4667 29.9497 34.4058 29.671 34.2876 29.4151C34.1694 29.1591 33.9968 28.9319 33.7818 28.7494C33.7492 28.7208 33.7225 28.6861 33.7033 28.6471C33.6841 28.6082 33.6728 28.5659 33.67 28.5225C33.6671 28.4792 33.6728 28.4358 33.6868 28.3947C33.7008 28.3536 33.7227 28.3156 33.7513 28.283C33.8091 28.2171 33.8907 28.1768 33.9782 28.1711C34.0215 28.1683 34.065 28.174 34.1061 28.188C34.1472 28.2019 34.1851 28.2238 34.2178 28.2525C34.503 28.4975 34.732 28.8011 34.8892 29.1427C35.0465 29.4842 35.1282 29.8557 35.1289 30.2317C35.1283 30.2752 35.1192 30.3182 35.102 30.3581C35.0849 30.3981 35.06 30.4343 35.0288 30.4647C34.9976 30.4951 34.9608 30.519 34.9204 30.5351C34.8799 30.5512 34.8367 30.5592 34.7932 30.5586Z" fill="#58F93B" stroke="#58F93B" stroke-width="0.75"/>
<path d="M5.63248 33.2397C5.55687 33.2406 5.48313 33.2161 5.42323 33.1699C5.26628 33.0391 1.54327 29.9569 1.70893 25.2661C1.71168 25.2064 1.73056 25.1485 1.76357 25.0986C1.79657 25.0487 1.84247 25.0087 1.89639 24.9827L6.84007 22.6591C6.88466 22.6365 6.93394 22.6248 6.98393 22.6248C7.03392 22.6248 7.08321 22.6365 7.12779 22.6591C7.17265 22.6817 7.21171 22.7142 7.24195 22.7543C7.27219 22.7944 7.2928 22.8409 7.30218 22.8902C7.30218 22.9469 8.2787 28.2393 10.7898 30.3319C10.8326 30.3673 10.8656 30.4132 10.8854 30.4652C10.9053 30.5171 10.9114 30.5733 10.9031 30.6283C10.8961 30.6824 10.8757 30.7338 10.8437 30.778C10.8117 30.8222 10.7692 30.8576 10.72 30.8812L5.77199 33.2397C5.726 33.2494 5.67847 33.2494 5.63248 33.2397ZM2.35849 25.5059C2.32362 29.242 5.00907 31.9318 5.66736 32.5465L9.97455 30.5193C7.94738 28.4878 6.99265 24.7081 6.72236 23.4438L2.35849 25.5059Z" fill="#58F93B" stroke="#58F93B" stroke-width="0.75"/>
<path d="M3.25219 32.516C3.00884 32.5136 2.77097 32.4434 2.56534 32.3133C2.3597 32.1831 2.19446 31.9982 2.08821 31.7792L0.667006 28.7624C0.52868 28.4498 0.518297 28.0954 0.638079 27.7751C0.757862 27.4549 0.998285 27.1943 1.30785 27.0491L2.01845 26.7004C2.09645 26.6679 2.18399 26.6669 2.26271 26.6976C2.34144 26.7282 2.40524 26.7882 2.44075 26.8648C2.47626 26.9415 2.48072 27.0289 2.4532 27.1088C2.42567 27.1887 2.3683 27.2548 2.2931 27.2933L1.5607 27.6377C1.4093 27.7094 1.29257 27.8384 1.23616 27.9961C1.17976 28.1539 1.1883 28.3276 1.2599 28.4791L2.67674 31.4958C2.71225 31.5714 2.76236 31.6391 2.82419 31.6952C2.88601 31.7512 2.95832 31.7945 3.03695 31.8224C3.11557 31.8504 3.19896 31.8625 3.28229 31.8581C3.36563 31.8537 3.44726 31.8328 3.52248 31.7967L4.31155 31.4261C4.39018 31.3891 4.48028 31.3848 4.56203 31.4143C4.64379 31.4437 4.71051 31.5044 4.7475 31.583C4.7845 31.6617 4.78875 31.7518 4.75932 31.8335C4.72989 31.9153 4.66918 31.982 4.59056 32.019L3.80149 32.3895C3.62976 32.4711 3.44231 32.5143 3.25219 32.516Z" fill="#58F93B" stroke="#58F93B" stroke-width="0.75"/>
<path d="M23.2013 30.1574C22.4166 30.1574 21.4575 29.5863 20.3981 28.4703C18.9362 26.8384 17.7335 24.9917 16.8321 22.9947C14.9095 18.9012 13.9155 14.0578 15.8686 13.1379C16.7405 12.7238 17.9263 13.2643 19.2865 14.6899C20.7471 16.3211 21.9497 18.1662 22.8525 20.1611C23.8163 22.1272 24.4721 24.2298 24.7969 26.3952C25.0279 28.3526 24.6922 29.6081 23.816 30.0179C23.6243 30.1103 23.4141 30.158 23.2013 30.1574ZM16.4789 13.661C16.3646 13.6584 16.2512 13.6823 16.1476 13.7308C15.0054 14.267 15.2583 18.0903 17.438 22.7157C18.3052 24.6455 19.4638 26.4305 20.8733 28.0082C21.9719 29.1635 22.9659 29.691 23.537 29.4207C24.1081 29.1504 24.3348 28.0518 24.1473 26.4693C23.8323 24.3729 23.1956 22.3378 22.2596 20.4357C21.3897 18.5018 20.2266 16.7137 18.8113 15.1346C17.9045 14.1885 17.0631 13.661 16.4789 13.661Z" fill="#58F93B" stroke="#58F93B" stroke-width="0.75"/>
<path d="M6.97521 23.2999C6.90452 23.3002 6.83564 23.2776 6.77889 23.2354C6.72214 23.1932 6.68059 23.1338 6.66045 23.0661C6.64032 22.9983 6.64269 22.9258 6.66721 22.8595C6.69174 22.7932 6.73709 22.7366 6.79647 22.6983C8.57025 21.5623 10.167 20.1713 11.5353 18.5698C12.0477 17.9277 12.5209 17.2551 12.9521 16.5557C13.6186 15.3913 14.4613 14.3369 15.4501 13.43C15.5719 13.3249 15.7032 13.2315 15.8425 13.151C15.917 13.1156 16.0022 13.1097 16.0809 13.1345C16.1596 13.1593 16.226 13.2129 16.2668 13.2846C16.3076 13.3563 16.3198 13.4408 16.301 13.5211C16.2821 13.6015 16.2335 13.6717 16.1651 13.7177C16.0604 13.7805 15.9613 13.8519 15.8686 13.9313C14.9357 14.7971 14.1417 15.8014 13.5145 16.9089C13.0685 17.6309 12.5794 18.3253 12.0497 18.9884C10.642 20.6408 8.99648 22.0748 7.16703 23.2432C7.11113 23.2828 7.04366 23.3028 6.97521 23.2999Z" fill="#58F93B" stroke="#58F93B" stroke-width="0.75"/>
<path d="M10.5718 30.9334C10.4914 30.9382 10.412 30.9132 10.349 30.863C10.2859 30.8129 10.2435 30.7413 10.23 30.6619C10.2165 30.5824 10.2328 30.5008 10.2758 30.4327C10.3187 30.3645 10.3853 30.3146 10.4628 30.2926C12.5305 29.6323 14.6836 29.2783 16.8539 29.2419C17.7028 29.2582 18.5501 29.3252 19.3911 29.4425C20.6471 29.6603 21.929 29.6853 23.1926 29.5166C23.3141 29.4943 23.4337 29.4622 23.5501 29.4207C23.6316 29.39 23.7219 29.393 23.8012 29.429C23.8805 29.465 23.9423 29.531 23.9729 29.6125C24.0036 29.694 24.0006 29.7844 23.9646 29.8637C23.9286 29.943 23.8626 30.0047 23.7811 30.0354C23.629 30.088 23.4731 30.1289 23.3146 30.1574C21.9852 30.3411 20.6354 30.3191 19.3126 30.092C18.4994 29.9753 17.6797 29.9097 16.8582 29.8959C14.7512 29.9301 12.6608 30.2754 10.6546 30.9204C10.6276 30.9279 10.5998 30.9323 10.5718 30.9334Z" fill="#58F93B" stroke="#58F93B" stroke-width="0.75"/>
<path d="M10.611 38.5189C10.5304 38.5208 10.4521 38.4911 10.3931 38.4361C10.3567 38.4061 10.3279 38.368 10.309 38.3248C10.29 38.2817 10.2815 38.2347 10.2841 38.1876C10.3146 36.8013 7.96482 33.4968 7.05804 32.3415C7.00591 32.2721 6.98268 32.1852 6.99325 32.099C7.00382 32.0129 7.04735 31.9342 7.11472 31.8794C7.18301 31.8264 7.26951 31.8027 7.35529 31.8133C7.44107 31.8239 7.51915 31.868 7.57247 31.9361C7.89943 32.3502 10.5805 35.816 10.9031 37.7996C11.8245 37.5735 12.6915 37.1659 13.4534 36.6008C12.6992 35.8553 10.5762 33.6276 9.52988 31.0729C9.51081 31.0328 9.50032 30.9892 9.4991 30.9449C9.49787 30.9005 9.50593 30.8564 9.52276 30.8154C9.5396 30.7743 9.56483 30.7372 9.59683 30.7065C9.62884 30.6758 9.66692 30.6521 9.70862 30.6369C9.74887 30.6192 9.79229 30.6097 9.83628 30.6092C9.88027 30.6086 9.92392 30.6169 9.96462 30.6336C10.0053 30.6503 10.0422 30.675 10.0732 30.7063C10.1041 30.7376 10.1284 30.7748 10.1446 30.8157C11.3347 33.7671 14.1422 36.3566 14.1684 36.3784C14.2029 36.41 14.2304 36.4484 14.2491 36.4912C14.2679 36.5339 14.2775 36.5802 14.2774 36.6269C14.2756 36.6731 14.2647 36.7184 14.2452 36.7604C14.2258 36.8023 14.1982 36.8399 14.164 36.871C13.1629 37.7117 11.9615 38.2793 10.6764 38.5189H10.611Z" fill="#58F93B" stroke="#58F93B" stroke-width="0.75"/>
<path d="M18.3099 25.3619C18.2649 25.3622 18.2203 25.353 18.179 25.335C18.1377 25.317 18.1006 25.2905 18.0702 25.2573C18.0412 25.2255 18.0188 25.1884 18.0043 25.148C17.9897 25.1075 17.9833 25.0647 17.9853 25.0217C17.9873 24.9788 17.9978 24.9367 18.0161 24.8978C18.0344 24.859 18.0602 24.8241 18.092 24.7952L19.6178 23.3958C19.8779 23.1554 20.0526 22.8368 20.1155 22.4882C20.1785 22.1397 20.1262 21.7801 19.9666 21.4639C19.807 21.1477 19.5488 20.8921 19.231 20.7357C18.9133 20.5793 18.5532 20.5306 18.2053 20.597L16.2522 20.9675C16.1649 20.9837 16.0748 20.9646 16.0016 20.9143C15.9285 20.864 15.8783 20.7867 15.8621 20.6994C15.8459 20.6121 15.865 20.522 15.9153 20.4488C15.9656 20.3757 16.0429 20.3255 16.1302 20.3093L18.0832 19.9431C18.5697 19.8544 19.0718 19.9259 19.5141 20.1469C19.9564 20.3679 20.3151 20.7265 20.5362 21.1688C20.7574 21.6111 20.829 22.1131 20.7405 22.5996C20.6519 23.0861 20.4078 23.5307 20.045 23.8666L18.5105 25.266C18.4565 25.3198 18.3857 25.3537 18.3099 25.3619Z" fill="#58F93B" stroke="#58F93B" stroke-width="0.75"/>
<path d="M24.1255 19.2457C24.051 19.243 23.9796 19.2153 23.9228 19.167C23.8661 19.1187 23.8272 19.0527 23.8126 18.9796C23.798 18.9065 23.8085 18.8306 23.8423 18.7642C23.8761 18.6978 23.9314 18.6447 23.9991 18.6136L26.4317 17.6109C26.512 17.578 26.6022 17.5783 26.6823 17.6118C26.7624 17.6453 26.826 17.7093 26.8589 17.7897C26.8919 17.87 26.8916 17.9602 26.858 18.0403C26.8245 18.1204 26.7605 18.1839 26.6802 18.2169L24.2519 19.2196C24.212 19.2366 24.169 19.2455 24.1255 19.2457Z" fill="#58F93B" stroke="#58F93B" stroke-width="0.75"/>
<path d="M22.7305 17.2316C22.6616 17.2328 22.5942 17.2114 22.5387 17.1705C22.4738 17.1203 22.4305 17.0473 22.4175 16.9663C22.4046 16.8854 22.4229 16.8025 22.4689 16.7346L23.8639 14.8469C23.9154 14.7836 23.9886 14.7418 24.0692 14.7297C24.1499 14.7176 24.2322 14.7361 24.2999 14.7815C24.3641 14.8323 24.4065 14.9056 24.4187 14.9866C24.4308 15.0675 24.4117 15.1501 24.3653 15.2175L22.9964 17.1095C22.9644 17.1488 22.9237 17.1803 22.8776 17.2015C22.8315 17.2226 22.7812 17.2329 22.7305 17.2316Z" fill="#58F93B" stroke="#58F93B" stroke-width="0.75"/>
<path d="M26.9853 21.4952H24.6225C24.5796 21.4952 24.537 21.4868 24.4974 21.4703C24.4577 21.4539 24.4217 21.4298 24.3913 21.3995C24.3609 21.3691 24.3369 21.3331 24.3204 21.2934C24.304 21.2537 24.2955 21.2112 24.2955 21.1683C24.2955 21.1253 24.304 21.0828 24.3204 21.0431C24.3369 21.0035 24.3609 20.9674 24.3913 20.9371C24.4217 20.9067 24.4577 20.8826 24.4974 20.8662C24.537 20.8498 24.5796 20.8413 24.6225 20.8413H26.9853C27.0283 20.8413 27.0708 20.8498 27.1105 20.8662C27.1501 20.8826 27.1862 20.9067 27.2165 20.9371C27.2469 20.9674 27.271 21.0035 27.2874 21.0431C27.3039 21.0828 27.3123 21.1253 27.3123 21.1683C27.3123 21.2112 27.3039 21.2537 27.2874 21.2934C27.271 21.3331 27.2469 21.3691 27.2165 21.3995C27.1862 21.4298 27.1501 21.4539 27.1105 21.4703C27.0708 21.4868 27.0283 21.4952 26.9853 21.4952Z" fill="#58F93B" stroke="#58F93B" stroke-width="0.75"/>
</g>
<defs>
<clipPath id="clip0_11_407">
<rect width="40.9794" height="40.9794" fill="white" transform="translate(0 0.107422)"/>
</clipPath>
</defs>
</svg>
