<svg width="38" height="41" viewBox="0 0 38 41" fill="none" xmlns="http://www.w3.org/2000/svg">
<path fill-rule="evenodd" clip-rule="evenodd" d="M12.3225 25.6795C19.5319 32.8889 26.2125 33.6783 28.1737 33.7514C30.5437 33.8376 32.9625 31.9026 34.0088 29.9208C32.34 27.9633 30.1669 26.4445 27.7875 24.7983C26.3831 26.2008 24.6525 28.807 22.3481 27.8733C21.0375 27.3464 17.8013 25.8558 14.9738 23.0264C12.1463 20.197 10.6556 16.9626 10.125 15.6539C9.19125 13.3458 11.805 11.6114 13.2094 10.207C11.5631 7.78825 10.0706 5.55888 8.11687 3.9745C6.10687 5.0245 4.16062 7.4245 4.24875 9.82638C4.32187 11.7876 5.11125 18.4683 12.3225 25.6795ZM28.035 37.4995C25.335 37.4001 17.6831 36.3426 9.66937 28.3308C1.6575 20.317 0.601875 12.667 0.500625 9.96513C0.350625 5.84763 3.50437 1.84825 7.1475 0.28638C7.58621 0.0969425 8.06663 0.024818 8.54162 0.0770836C9.01661 0.129349 9.46986 0.304209 9.85687 0.584504C12.8719 2.78388 14.9513 6.11576 16.7381 8.72575C17.1098 9.26848 17.2801 9.92407 17.2195 10.5791C17.1589 11.2341 16.8712 11.8473 16.4063 12.3126L13.8638 14.857C14.4544 16.1601 15.6562 18.4064 17.625 20.3751C19.5938 22.3439 21.84 23.5458 23.145 24.1364L25.6856 21.5939C26.1522 21.1269 26.768 20.8389 27.4255 20.7803C28.083 20.7217 28.7401 20.8962 29.2819 21.2733C31.9444 23.1183 35.0719 25.1676 37.3519 28.087C37.6549 28.4768 37.8477 28.9409 37.91 29.4307C37.9724 29.9205 37.902 30.4181 37.7062 30.8714C36.1369 34.5333 32.1656 37.6514 28.035 37.4995Z" fill="#58F93B"/>
</svg>
