<svg width="33" height="34" viewBox="0 0 33 34" fill="none" xmlns="http://www.w3.org/2000/svg">
<g clip-path="url(#clip0_10_325)">
<path d="M32.1005 17.2501C32.2816 17.2501 32.4554 17.1782 32.5834 17.0501C32.7115 16.922 32.7835 16.7483 32.7835 16.5672V4.27335C32.7824 3.36798 32.4223 2.5 31.7821 1.85981C31.1419 1.21962 30.2739 0.859483 29.3685 0.858398L3.41495 0.858398C2.50958 0.859483 1.6416 1.21962 1.00141 1.85981C0.361221 2.5 0.00108449 3.36798 0 4.27335L0 23.397C0.00108449 24.3024 0.361221 25.1704 1.00141 25.8106C1.6416 26.4508 2.50958 26.8109 3.41495 26.812H10.9278V29.8615L9.18279 31.0226C9.08899 31.0852 9.01214 31.17 8.95911 31.2696C8.90608 31.3691 8.87851 31.4802 8.87886 31.5929V32.2759C8.87886 32.6382 9.02278 32.9856 9.27895 33.2418C9.53512 33.498 9.88256 33.6419 10.2448 33.6419H22.5386C22.9009 33.6419 23.2484 33.498 23.5045 33.2418C23.7607 32.9856 23.9046 32.6382 23.9046 32.2759V31.5929C23.9046 31.4805 23.8769 31.3698 23.8239 31.2707C23.7709 31.1716 23.6942 31.0871 23.6007 31.0247L21.8557 29.8615V28.861C21.8557 28.6798 21.7837 28.5061 21.6556 28.378C21.5275 28.2499 21.3538 28.178 21.1727 28.178C20.9915 28.178 20.8178 28.2499 20.6897 28.378C20.5616 28.5061 20.4897 28.6798 20.4897 28.861V30.2269C20.4897 30.3394 20.5174 30.45 20.5704 30.5492C20.6234 30.6483 20.7001 30.7328 20.7936 30.7952L22.5386 31.9583V32.2759H10.2448V31.9583L11.9899 30.7972C12.0837 30.7347 12.1605 30.6498 12.2136 30.5503C12.2666 30.4508 12.2942 30.3397 12.2938 30.2269V26.812H29.3685C30.2739 26.8109 31.1419 26.4508 31.7821 25.8106C32.4223 25.1704 32.7824 24.3024 32.7835 23.397V19.9821C32.7835 19.801 32.7115 19.6272 32.5834 19.4992C32.4554 19.3711 32.2816 19.2991 32.1005 19.2991H4.09794C3.9168 19.2991 3.74308 19.3711 3.61499 19.4992C3.4869 19.6272 3.41495 19.801 3.41495 19.9821C3.41495 20.1632 3.4869 20.337 3.61499 20.465C3.74308 20.5931 3.9168 20.6651 4.09794 20.6651H31.4175V23.397C31.4175 23.9405 31.2016 24.4616 30.8174 24.8459C30.4331 25.2301 29.912 25.446 29.3685 25.446H3.41495C2.87153 25.446 2.35036 25.2301 1.96611 24.8459C1.58185 24.4616 1.36598 23.9405 1.36598 23.397V4.27335C1.36598 3.72993 1.58185 3.20876 1.96611 2.82451C2.35036 2.44025 2.87153 2.22438 3.41495 2.22438H29.3685C29.912 2.22438 30.4331 2.44025 30.8174 2.82451C31.2016 3.20876 31.4175 3.72993 31.4175 4.27335V16.5672C31.4175 16.7483 31.4895 16.922 31.6176 17.0501C31.7456 17.1782 31.9194 17.2501 32.1005 17.2501Z" fill="#58F93B"/>
<path d="M13.4597 5.83937C13.3316 5.71133 13.1579 5.6394 12.9768 5.6394C12.7957 5.6394 12.622 5.71133 12.4939 5.83937L8.39598 9.93731C8.26794 10.0654 8.19601 10.2391 8.19601 10.4202C8.19601 10.6013 8.26794 10.775 8.39598 10.9031L12.4939 15.001C12.6227 15.1254 12.7953 15.1942 12.9743 15.1927C13.1534 15.1911 13.3247 15.1193 13.4513 14.9927C13.578 14.866 13.6498 14.6947 13.6514 14.5157C13.6529 14.3366 13.5841 14.1641 13.4597 14.0352L9.8446 10.4202L13.4597 6.80512C13.5877 6.67704 13.6596 6.50335 13.6596 6.32225C13.6596 6.14114 13.5877 5.96745 13.4597 5.83937Z" fill="#58F93B"/>
<path d="M19.3238 15.001C19.4519 15.129 19.6256 15.201 19.8067 15.201C19.9878 15.201 20.1615 15.129 20.2896 15.001L24.3875 10.9031C24.5155 10.775 24.5875 10.6013 24.5875 10.4202C24.5875 10.2391 24.5155 10.0654 24.3875 9.9373L20.2896 5.83937C20.2266 5.77414 20.1512 5.7221 20.0679 5.68631C19.9845 5.65051 19.8949 5.63167 19.8042 5.63089C19.7135 5.6301 19.6236 5.64738 19.5397 5.68172C19.4557 5.71606 19.3795 5.76677 19.3153 5.8309C19.2512 5.89503 19.2005 5.97129 19.1662 6.05522C19.1318 6.13916 19.1145 6.2291 19.1153 6.31978C19.1161 6.41047 19.135 6.50009 19.1708 6.58342C19.2065 6.66675 19.2586 6.74211 19.3238 6.80511L22.9389 10.4202L19.3238 14.0352C19.1958 14.1633 19.1238 14.337 19.1238 14.5181C19.1238 14.6992 19.1958 14.8729 19.3238 15.001Z" fill="#58F93B"/>
</g>
<defs>
<clipPath id="clip0_10_325">
<rect width="32.7835" height="32.7835" fill="white" transform="translate(0 0.858398)"/>
</clipPath>
</defs>
</svg>
