<svg width="1277" height="529" viewBox="0 0 1277 529" fill="none" xmlns="http://www.w3.org/2000/svg">
<path d="M1272.01 216C1349.15 216 1411.68 153.32 1411.68 76C1411.68 -1.31986 1349.15 -64 1272.01 -64C1194.87 -64 1132.34 -1.31986 1132.34 76C1132.34 153.32 1194.87 216 1272.01 216Z" stroke="#12320C" stroke-width="29"/>
<path d="M359.156 454C407.092 454 445.952 415.049 445.952 367C445.952 318.951 407.092 280 359.156 280C311.22 280 272.36 318.951 272.36 367C272.36 415.049 311.22 454 359.156 454Z" stroke="#12320C" stroke-width="29"/>
<path d="M1142.32 545C1214.5 545 1273.01 486.349 1273.01 414C1273.01 341.651 1214.5 283 1142.32 283C1070.14 283 1011.62 341.651 1011.62 414C1011.62 486.349 1070.14 545 1142.32 545Z" stroke="#12320C" stroke-width="29"/>
<path d="M86.796 135C158.976 135 217.489 76.3493 217.489 4C217.489 -68.3493 158.976 -127 86.796 -127C14.6163 -127 -43.897 -68.3493 -43.897 4C-43.897 76.3493 14.6163 135 86.796 135Z" stroke="#12320C" stroke-width="29"/>
<path d="M597.596 622C649.94 622 692.373 579.467 692.373 527C692.373 474.533 649.94 432 597.596 432C545.252 432 502.818 474.533 502.818 527C502.818 579.467 545.252 622 597.596 622Z" stroke="#12320C" stroke-width="29"/>
<path d="M673.418 161C729.619 161 775.179 115.333 775.179 59C775.179 2.66695 729.619 -43 673.418 -43C617.217 -43 571.657 2.66695 571.657 59C571.657 115.333 617.217 161 673.418 161Z" stroke="#12320C" stroke-width="29"/>
<path d="M874.944 377C924.533 377 964.733 336.706 964.733 287C964.733 237.294 924.533 197 874.944 197C825.355 197 785.155 237.294 785.155 287C785.155 336.706 825.355 377 874.944 377Z" stroke="#12320C" stroke-width="29"/>
</svg>
