<svg width="90" height="90" viewBox="0 0 90 90" fill="none" xmlns="http://www.w3.org/2000/svg">
<path d="M67.5 3.75H22.5C20.0377 3.75 17.5995 4.23498 15.3247 5.17726C13.0498 6.11953 10.9828 7.50065 9.24175 9.24175C5.72544 12.7581 3.75 17.5272 3.75 22.5V67.5C3.75 69.9623 4.23498 72.4005 5.17726 74.6753C6.11953 76.9502 7.50065 79.0172 9.24175 80.7583C12.7581 84.2746 17.5272 86.25 22.5 86.25H67.5C69.9623 86.25 72.4005 85.765 74.6753 84.8227C76.9502 83.8805 79.0172 82.4994 80.7583 80.7583C82.4994 79.0172 83.8805 76.9502 84.8227 74.6753C85.765 72.4005 86.25 69.9623 86.25 67.5V22.5C86.25 20.0377 85.765 17.5995 84.8227 15.3247C83.8805 13.0498 82.4994 10.9828 80.7583 9.24175C79.0172 7.50065 76.9502 6.11953 74.6753 5.17726C72.4005 4.23498 69.9623 3.75 67.5 3.75ZM11.25 22.5C11.25 19.5163 12.4353 16.6548 14.545 14.545C16.6548 12.4353 19.5163 11.25 22.5 11.25H67.5C70.4837 11.25 73.3452 12.4353 75.455 14.545C77.5647 16.6548 78.75 19.5163 78.75 22.5V26.25H11.25V22.5ZM67.5 78.75H22.5C19.5163 78.75 16.6548 77.5647 14.545 75.455C12.4353 73.3452 11.25 70.4837 11.25 67.5V33.75H78.75V67.5C78.75 70.4837 77.5647 73.3452 75.455 75.455C73.3452 77.5647 70.4837 78.75 67.5 78.75Z" fill="#58F93B"/>
<path d="M40.1625 46.0875C39.8139 45.736 39.3992 45.4571 38.9422 45.2667C38.4852 45.0763 37.9951 44.9783 37.5 44.9783C37.005 44.9783 36.5148 45.0763 36.0579 45.2667C35.6009 45.4571 35.1861 45.736 34.8375 46.0875L27.3375 53.5875C26.986 53.9361 26.7071 54.3509 26.5167 54.8079C26.3263 55.2648 26.2283 55.755 26.2283 56.25C26.2283 56.7451 26.3263 57.2352 26.5167 57.6922C26.7071 58.1492 26.986 58.5639 27.3375 58.9125L34.8375 66.4125C35.1861 66.764 35.6009 67.043 36.0579 67.2334C36.5148 67.4237 37.005 67.5218 37.5 67.5218C37.9951 67.5218 38.4852 67.4237 38.9422 67.2334C39.3992 67.043 39.8139 66.764 40.1625 66.4125C40.514 66.0639 40.793 65.6492 40.9834 65.1922C41.1737 64.7352 41.2718 64.2451 41.2718 63.75C41.2718 63.255 41.1737 62.7648 40.9834 62.3079C40.793 61.8509 40.514 61.4361 40.1625 61.0875L35.2875 56.25L40.1625 51.4125C40.514 51.0639 40.793 50.6492 40.9834 50.1922C41.1737 49.7352 41.2718 49.2451 41.2718 48.75C41.2718 48.255 41.1737 47.7648 40.9834 47.3079C40.793 46.8509 40.514 46.4361 40.1625 46.0875Z" fill="#58F93B"/>
<path d="M55.1625 46.0875C54.4564 45.3813 53.4986 44.9846 52.5 44.9846C51.5014 44.9846 50.5437 45.3813 49.8375 46.0875C49.1314 46.7936 48.7347 47.7513 48.7347 48.75C48.7347 49.7486 49.1314 50.7063 49.8375 51.4125L54.7125 56.25L49.8375 61.0875C49.486 61.4361 49.2071 61.8508 49.0167 62.3078C48.8263 62.7648 48.7283 63.2549 48.7283 63.75C48.7283 64.245 48.8263 64.7352 49.0167 65.1921C49.2071 65.6491 49.486 66.0638 49.8375 66.4125C50.1861 66.7639 50.6009 67.0429 51.0579 67.2333C51.5148 67.4237 52.005 67.5217 52.5 67.5217C52.9951 67.5217 53.4852 67.4237 53.9422 67.2333C54.3992 67.0429 54.8139 66.7639 55.1625 66.4125L62.6625 58.9125C63.014 58.5639 63.293 58.1491 63.4834 57.6921C63.6737 57.2352 63.7718 56.745 63.7718 56.25C63.7718 55.7549 63.6737 55.2648 63.4834 54.8078C63.293 54.3508 63.014 53.9361 62.6625 53.5875L55.1625 46.0875Z" fill="#58F93B"/>
</svg>
