<svg width="41" height="31" viewBox="0 0 41 31" fill="none" xmlns="http://www.w3.org/2000/svg">
<path d="M38 0.5H3C2.33696 0.5 1.70107 0.763392 1.23223 1.23223C0.763392 1.70107 0.5 2.33696 0.5 3V28C0.5 28.663 0.763392 29.2989 1.23223 29.7678C1.70107 30.2366 2.33696 30.5 3 30.5H38C38.663 30.5 39.2989 30.2366 39.7678 29.7678C40.2366 29.2989 40.5 28.663 40.5 28V3C40.5 2.33696 40.2366 1.70107 39.7678 1.23223C39.2989 0.763392 38.663 0.5 38 0.5ZM36.075 28H5.075L13.825 18.95L12.025 17.2125L3 26.55V4.9L18.5375 20.3625C19.0059 20.8281 19.6395 21.0895 20.3 21.0895C20.9605 21.0895 21.5941 20.8281 22.0625 20.3625L38 4.5125V26.3875L28.8 17.1875L27.0375 18.95L36.075 28ZM4.6375 3H35.975L20.3 18.5875L4.6375 3Z" fill="#58F93B"/>
</svg>
