<svg width="85" height="86" viewBox="0 0 85 86" fill="none" xmlns="http://www.w3.org/2000/svg">
<path d="M84.5148 16.0638C84.1399 15.2934 83.5686 14.6354 82.8585 14.1562C82.1483 13.6769 81.3244 13.3933 80.4697 13.334L76.2478 12.9461L83.6763 5.45083C84.1489 4.96651 84.411 4.31508 84.4055 3.63842C84.4001 2.96175 84.1274 2.31467 83.647 1.83809C83.1666 1.36151 82.5174 1.09405 81.8407 1.09396C81.164 1.09387 80.5147 1.36116 80.0342 1.83761L72.5657 9.373L72.1668 5.0312C72.1075 4.177 71.8242 3.35349 71.3455 2.64357C70.8668 1.93364 70.2095 1.36237 69.4398 0.987249C68.577 0.589189 67.6126 0.466403 66.6777 0.635576C65.7427 0.804749 64.8825 1.25768 64.214 1.93281L58.6797 7.46851C58.4129 7.73533 58.2081 8.05757 58.0798 8.41239C57.9515 8.76721 57.9029 9.14591 57.9373 9.52164L58.9015 20.0057C58.9841 20.9037 58.869 21.809 58.5643 22.6578C58.2596 23.5067 57.7727 24.2785 57.1377 24.919L37.8094 44.4151C37.5711 44.6551 37.3824 44.9398 37.2542 45.2528C37.126 45.5658 37.0607 45.901 37.062 46.2392C37.0634 46.5775 37.1314 46.9121 37.2622 47.2241C37.393 47.536 37.5839 47.8191 37.8242 48.0572C38.0613 48.2935 38.3432 48.4802 38.6533 48.6062C38.9634 48.7323 39.2956 48.7953 39.6303 48.7915C39.9682 48.7926 40.3031 48.7271 40.6156 48.5986C40.9281 48.4701 41.2122 48.2812 41.4516 48.0428L60.892 28.4344C61.5332 27.7877 62.3095 27.2909 63.1653 26.9794C64.0211 26.6679 64.9351 26.5495 65.842 26.6327L75.9799 27.5645C76.059 27.5717 76.138 27.5754 76.2152 27.5754C76.5527 27.5754 76.8869 27.5089 77.1987 27.3797C77.5105 27.2505 77.7938 27.0611 78.0324 26.8223L83.5688 21.2875C84.2439 20.6194 84.6969 19.7595 84.8661 18.8249C85.0354 17.8903 84.9127 16.9262 84.5148 16.0638ZM75.2508 22.3357L64.1836 21.3188L63.1653 10.2516L67.1211 6.29514L67.9431 15.2344C67.9979 15.8322 68.2602 16.392 68.6847 16.8165C69.1091 17.2411 69.6688 17.5036 70.2666 17.5585L79.2048 18.3805L75.2508 22.3357Z" fill="#58F93B"/>
<path d="M44.6367 32.5349C41.5002 31.3812 38.0634 31.3352 34.8971 32.4047C31.7309 33.4741 29.0258 35.5947 27.2313 38.414C25.4368 41.2333 24.6608 44.5817 25.0323 47.903C25.4038 51.2243 26.9004 54.3185 29.2735 56.6716C31.6465 59.0248 34.7533 60.4953 38.0776 60.8387C41.4018 61.1822 44.7436 60.378 47.5477 58.5598C50.3518 56.7416 52.4494 54.0187 53.4922 50.8436C54.5349 47.6684 54.46 44.2321 53.2798 41.1054L43.9374 50.5287C42.7975 51.6677 41.2523 52.308 39.6409 52.3094C38.0295 52.3107 36.4833 51.6729 35.3415 50.5359C34.1997 49.3988 33.5554 47.8554 33.5499 46.244C33.5445 44.6326 34.1783 43.0848 35.3124 41.94L44.6367 32.5349Z" fill="#58F93B"/>
<path d="M75.659 31.0654L65.5207 30.1338C65.4394 30.1262 65.358 30.1225 65.277 30.1225C64.5681 30.1245 63.889 30.4077 63.3887 30.91L61.1962 33.1213C64.4136 38.4058 65.5857 44.6851 64.4913 50.7744C63.3969 56.8637 60.1116 62.3419 55.2554 66.1753C50.3992 70.0086 44.3079 71.9321 38.1309 71.5827C31.9539 71.2333 26.1184 68.6352 21.7254 64.2786C17.3325 59.9221 14.686 54.1083 14.2852 47.9345C13.8844 41.7606 15.7572 35.6535 19.55 30.7656C23.3429 25.8777 28.7935 22.547 34.8735 21.4019C40.9535 20.2569 47.2424 21.3767 52.5534 24.5501L54.6411 22.444C54.9148 22.1683 55.1247 21.836 55.2559 21.4704C55.3871 21.1047 55.4365 20.7148 55.4005 20.328L54.4369 9.84383C54.4272 9.7378 54.4469 9.63472 54.4424 9.52897C45.9707 6.11318 36.5779 5.73479 27.8589 8.45804C19.14 11.1813 11.6322 16.8383 6.61061 24.4685C1.58899 32.0987 -0.636981 41.2318 0.310672 50.3169C1.25832 59.402 5.32119 67.8791 11.8094 74.3087C18.2976 80.7383 26.8111 84.7242 35.9044 85.5895C44.9977 86.4548 54.1102 84.1461 61.6946 79.0555C69.279 73.965 74.8677 66.4063 77.5119 57.663C80.156 48.9196 79.6925 39.5307 76.2 31.0903C76.0226 31.0897 75.842 31.0821 75.659 31.0654Z" fill="#58F93B"/>
</svg>
