<svg width="18" height="18" viewBox="0 0 18 18" fill="none" xmlns="http://www.w3.org/2000/svg">
<path d="M9.252 15.506C9.8849 15.4627 10.5125 15.3617 11.127 15.204C11.886 15.4322 12.687 15.4838 13.469 15.355C13.5002 15.3512 13.5316 15.3489 13.563 15.348C13.842 15.348 14.208 15.508 14.742 15.845V15.291C14.7422 15.1945 14.7683 15.0998 14.8176 15.0168C14.8668 14.9338 14.9374 14.8655 15.022 14.819C15.2547 14.6877 15.4697 14.54 15.667 14.376C16.445 13.726 16.884 12.858 16.884 11.94C16.884 11.637 16.836 11.335 16.741 11.047C16.977 10.613 17.165 10.16 17.305 9.68801C17.755 10.353 17.997 11.138 18 11.94C18 13.188 17.412 14.352 16.393 15.203C16.2223 15.345 16.044 15.4757 15.858 15.595V16.893C15.858 17.339 15.336 17.596 14.968 17.33C14.6193 17.0734 14.2589 16.8332 13.888 16.61C13.7808 16.5482 13.67 16.4931 13.556 16.445C13.2464 16.4908 12.9339 16.5139 12.621 16.514C11.351 16.514 10.177 16.137 9.252 15.506ZM2.531 12.911C0.927 11.568 0 9.73701 0 7.77501C0 3.76701 3.832 0.562012 8.511 0.562012C13.191 0.562012 17.024 3.76601 17.024 7.77501C17.024 11.783 13.191 14.987 8.511 14.987C7.985 14.987 7.46667 14.947 6.956 14.867C6.736 14.918 5.854 15.435 4.584 16.35C4.124 16.682 3.472 16.362 3.472 15.803V13.59C3.14262 13.3864 2.82846 13.1591 2.532 12.91M6.987 13.502C7.02567 13.502 7.06467 13.505 7.104 13.511C7.564 13.587 8.033 13.6253 8.511 13.626C12.464 13.626 15.627 10.981 15.627 7.77401C15.627 4.56801 12.464 1.92301 8.512 1.92301C4.56 1.92301 1.395 4.57001 1.395 7.77501C1.395 9.32501 2.135 10.785 3.441 11.878C3.77033 12.1527 4.129 12.3993 4.517 12.618C4.62225 12.6764 4.71011 12.7617 4.7716 12.8652C4.83309 12.9687 4.86601 13.0866 4.867 13.207V14.483C5.872 13.818 6.533 13.502 6.987 13.502Z" fill="#58F93B"/>
<path d="M5.06201 9C5.36038 9 5.64653 8.88147 5.85751 8.6705C6.06849 8.45952 6.18701 8.17337 6.18701 7.875C6.18701 7.57663 6.06849 7.29048 5.85751 7.0795C5.64653 6.86853 5.36038 6.75 5.06201 6.75C4.76364 6.75 4.4775 6.86853 4.26652 7.0795C4.05554 7.29048 3.93701 7.57663 3.93701 7.875C3.93701 8.17337 4.05554 8.45952 4.26652 8.6705C4.4775 8.88147 4.76364 9 5.06201 9ZM8.71901 9C9.01738 9 9.30353 8.88147 9.51451 8.6705C9.72549 8.45952 9.84401 8.17337 9.84401 7.875C9.84401 7.57663 9.72549 7.29048 9.51451 7.0795C9.30353 6.86853 9.01738 6.75 8.71901 6.75C8.42064 6.75 8.1345 6.86853 7.92352 7.0795C7.71254 7.29048 7.59401 7.57663 7.59401 7.875C7.59401 8.17337 7.71254 8.45952 7.92352 8.6705C8.1345 8.88147 8.42064 9 8.71901 9ZM12.375 9C12.6734 9 12.9595 8.88147 13.1705 8.6705C13.3815 8.45952 13.5 8.17337 13.5 7.875C13.5 7.57663 13.3815 7.29048 13.1705 7.0795C12.9595 6.86853 12.6734 6.75 12.375 6.75C12.0766 6.75 11.7905 6.86853 11.5795 7.0795C11.3685 7.29048 11.25 7.57663 11.25 7.875C11.25 8.17337 11.3685 8.45952 11.5795 8.6705C11.7905 8.88147 12.0766 9 12.375 9Z" fill="#58F93B"/>
</svg>
