<svg width="73" height="75" viewBox="0 0 73 75" fill="none" xmlns="http://www.w3.org/2000/svg">
<path d="M45.6324 0.689941L39.9949 6.78389L45.5203 18.3488L45.7445 18.8613L45.6004 19.3898C44.8477 21.9523 44.5434 24.9792 44.8637 27.7019C45.1199 29.7839 45.7285 31.6578 46.7055 33.0351L72.3305 5.30404C70.873 4.43119 68.9672 3.97475 66.8691 3.88826C64.1305 3.77936 61.1355 4.32869 58.6371 5.27682L58.1246 5.4674L45.6324 0.689941ZM38.5535 10.4691L8.22953 25.748C9.2193 26.1964 10.1002 26.8531 10.8193 27.6538L39.7867 13.0636L38.5535 10.4691ZM66.757 15.5781L56.523 26.6769C59.582 28.5988 63.682 28.1183 66.2285 25.3636C68.775 22.6249 68.9191 18.4929 66.757 15.5781ZM41.0359 15.6742L12.3199 30.1363C12.6402 30.9851 12.8164 31.914 12.8164 32.8749V33.1152L42.2691 18.2687L41.0359 15.6742ZM4.96875 27.9101C2.20926 27.9101 0.00390625 30.1203 0.00390625 32.8749C0.00390625 35.6296 2.20926 37.8398 4.96875 37.8398C7.72824 37.8398 9.93359 35.6296 9.93359 32.8749C9.93359 30.1203 7.72824 27.9101 4.96875 27.9101ZM12.2559 35.7738C11.8699 36.7347 11.2949 37.6156 10.5758 38.3523L27.743 62.1835H31.2824L12.2559 35.7738ZM8.21352 40.0179C7.28141 40.4343 6.2516 40.6906 5.17055 40.7226L20.632 62.1835H24.1875L8.21352 40.0179ZM46.1289 59.3007V62.1835H49.0117V59.3007H46.1289ZM17.1887 65.0663L9.24973 74.996H64.7551L56.8113 65.0663H17.1887Z" fill="#58F93B"/>
</svg>
