<svg width="90" height="90" viewBox="0 0 90 90" fill="none" xmlns="http://www.w3.org/2000/svg">
<path fill-rule="evenodd" clip-rule="evenodd" d="M42.1959 64.8646H33.7753C31.5394 64.8646 29.3934 65.7534 27.81 67.334C26.2265 68.9175 25.3378 71.0634 25.3378 73.3021C25.3378 75.0965 25.3378 77.085 25.3378 78.8821C25.3378 81.1209 26.2265 83.2668 27.81 84.8475C29.3934 86.4309 31.5394 87.3196 33.7753 87.3196H56.2556C58.4944 87.3196 60.6403 86.4309 62.2237 84.8475C63.8044 83.2668 64.6931 81.1209 64.6931 78.8821V73.3021C64.6931 71.0634 63.8044 68.9175 62.2237 67.334C60.6403 65.7534 58.4944 64.8646 56.2556 64.8646H47.8209L47.7365 5.57434C47.7337 4.02465 46.4709 2.76465 44.9184 2.76746C43.3687 2.77027 42.1087 4.03027 42.1115 5.58277L42.1959 64.8646Z" fill="#58F93B"/>
<path fill-rule="evenodd" clip-rule="evenodd" d="M53.3644 8.40381L53.415 42.1876H78.75C79.83 42.1876 80.8172 41.5688 81.2841 40.5929C81.7538 39.6197 81.6216 38.4638 80.9466 37.6201L71.1 25.2957L80.9466 12.9713C81.6216 12.1276 81.7538 10.9688 81.2841 9.99568C80.8172 9.02256 79.83 8.40381 78.75 8.40381H53.3644Z" fill="#58F93B"/>
</svg>
