<svg width="28" height="48" viewBox="0 0 28 48" fill="none" xmlns="http://www.w3.org/2000/svg">
<path d="M13.7016 27.7512C8.99763 27.7512 5.16586 30.9069 5.05805 34.8186C4.82922 35.019 4.64563 35.2661 4.51952 35.5434C4.39341 35.8207 4.32768 36.1217 4.32673 36.4265C4.32577 36.7312 4.38961 37.0327 4.51398 37.3108C4.63835 37.5888 4.82039 37.8371 5.04796 38.039V39.3267C5.04859 39.9022 5.27672 40.4538 5.6823 40.8607C6.08788 41.2676 6.63779 41.4965 7.21137 41.4971H20.1918C20.7654 41.4965 21.3153 41.2676 21.7209 40.8607C22.1265 40.4538 22.3546 39.9022 22.3552 39.3267V38.039C22.5828 37.8371 22.7648 37.5888 22.8891 37.3108C23.0135 37.0328 23.0773 36.7313 23.0764 36.4266C23.0754 36.1218 23.0097 35.8208 22.8836 35.5436C22.7575 35.2663 22.5739 35.0192 22.3451 34.8188C22.2373 30.9069 18.4056 27.7512 13.7016 27.7512ZM13.7016 29.1982C17.3722 29.1982 20.4046 31.412 20.8505 34.2625H6.55276C6.99863 31.412 10.031 29.1982 13.7016 29.1982ZM20.913 39.3267C20.9127 39.5185 20.8367 39.7024 20.7015 39.838C20.5663 39.9736 20.383 40.0499 20.1918 40.0502H7.21137C7.02019 40.0499 6.83691 39.9736 6.70172 39.838C6.56654 39.7024 6.49048 39.5185 6.49023 39.3267V38.6033H20.913V39.3267ZM20.913 37.1563H6.49023C6.29898 37.1563 6.11555 37.0801 5.98031 36.9444C5.84507 36.8087 5.7691 36.6247 5.7691 36.4329C5.7691 36.241 5.84507 36.057 5.98031 35.9213C6.11555 35.7856 6.29898 35.7094 6.49023 35.7094H20.913C21.1042 35.7094 21.2877 35.7856 21.4229 35.9213C21.5581 36.057 21.6341 36.241 21.6341 36.4329C21.6341 36.6247 21.5581 36.8087 21.4229 36.9444C21.2877 37.0801 21.1042 37.1563 20.913 37.1563ZM25.2398 0.98291H2.16341C1.58983 0.983542 1.03993 1.21241 0.634344 1.6193C0.228762 2.0262 0.000629898 2.57788 0 3.15331V45.1145C0.000629898 45.6899 0.228762 46.2416 0.634344 46.6485C1.03993 47.0554 1.58983 47.2842 2.16341 47.2849H25.2398C25.8134 47.2842 26.3633 47.0554 26.7689 46.6485C27.1744 46.2416 27.4026 45.6899 27.4032 45.1145V3.15331C27.4026 2.57788 27.1744 2.0262 26.7689 1.6193C26.3633 1.21241 25.8134 0.983542 25.2398 0.98291ZM21.2898 2.42985L20.6059 4.14526C20.5529 4.27985 20.4607 4.39527 20.3413 4.47645C20.2218 4.55762 20.0808 4.60077 19.9366 4.60025H7.46665C7.32241 4.60077 7.18136 4.55762 7.06194 4.47645C6.94253 4.39527 6.85029 4.27985 6.79729 4.14526L6.11337 2.42985H21.2898ZM25.9609 45.1145C25.9607 45.3063 25.8846 45.4901 25.7494 45.6258C25.6143 45.7614 25.431 45.8377 25.2398 45.8379H2.16341C1.97223 45.8377 1.78895 45.7614 1.65376 45.6258C1.51858 45.4901 1.44252 45.3063 1.44227 45.1145V3.15331C1.44252 2.96152 1.51858 2.77764 1.65376 2.64202C1.78895 2.5064 1.97223 2.4301 2.16341 2.42985H4.55946L5.45785 4.68294C5.6173 5.08649 5.89424 5.43249 6.25256 5.67584C6.61087 5.91918 7.03396 6.04859 7.46665 6.04719H19.9366C20.3692 6.04859 20.7923 5.91918 21.1507 5.67584C21.509 5.43249 21.7859 5.08649 21.9454 4.68294L22.8437 2.42985H25.2398C25.431 2.4301 25.6143 2.5064 25.7494 2.64202C25.8846 2.77764 25.9607 2.96152 25.9609 3.15331V45.1145ZM8.86494 23.9219C8.79794 23.8548 8.7448 23.775 8.70854 23.6873C8.67228 23.5995 8.65362 23.5054 8.65362 23.4104C8.65362 23.3154 8.67228 23.2213 8.70854 23.1336C8.7448 23.0458 8.79794 22.9661 8.86494 22.8989L17.5186 14.2173C17.6546 14.0855 17.8368 14.0126 18.0258 14.0143C18.2149 14.0159 18.3958 14.092 18.5295 14.2261C18.6632 14.3603 18.739 14.5417 18.7407 14.7314C18.7423 14.9211 18.6696 15.1039 18.5383 15.2403L9.88463 23.9219C9.81769 23.9891 9.73821 24.0424 9.65073 24.0788C9.56325 24.1152 9.46948 24.1339 9.37478 24.1339C9.28008 24.1339 9.18632 24.1152 9.09883 24.0788C9.01135 24.0424 8.93187 23.9891 8.86494 23.9219ZM10.8171 18.3461C11.2449 18.3461 11.6632 18.2189 12.019 17.9804C12.3748 17.7419 12.652 17.4029 12.8158 17.0063C12.9795 16.6097 13.0224 16.1733 12.9389 15.7523C12.8554 15.3313 12.6494 14.9446 12.3468 14.641C12.0443 14.3375 11.6588 14.1308 11.2391 14.047C10.8195 13.9633 10.3845 14.0063 9.98915 14.1706C9.59384 14.3348 9.25596 14.613 9.01824 14.9699C8.78053 15.3269 8.65364 15.7465 8.65364 16.1757C8.65427 16.7512 8.88241 17.3029 9.28799 17.7098C9.69357 18.1166 10.2435 18.3455 10.8171 18.3461ZM10.8171 15.4523C10.9597 15.4523 11.0991 15.4947 11.2177 15.5742C11.3363 15.6537 11.4287 15.7667 11.4833 15.8989C11.5379 16.0311 11.5522 16.1765 11.5243 16.3169C11.4965 16.4572 11.4278 16.5861 11.327 16.6873C11.2261 16.7885 11.0976 16.8574 10.9577 16.8853C10.8179 16.9132 10.6729 16.8989 10.5411 16.8441C10.4093 16.7894 10.2967 16.6967 10.2175 16.5777C10.1382 16.4587 10.0959 16.3188 10.0959 16.1757C10.0961 15.9839 10.1721 15.8 10.3073 15.6644C10.4425 15.5287 10.6258 15.4524 10.8171 15.4523ZM16.5862 19.7931C16.1583 19.7931 15.74 19.9204 15.3842 20.1589C15.0285 20.3974 14.7512 20.7363 14.5874 21.1329C14.4237 21.5295 14.3808 21.9659 14.4643 22.3869C14.5478 22.8079 14.7538 23.1947 15.0564 23.4982C15.3589 23.8017 15.7444 24.0084 16.1641 24.0922C16.5838 24.1759 17.0187 24.133 17.4141 23.9687C17.8094 23.8044 18.1472 23.5262 18.385 23.1693C18.6227 22.8124 18.7496 22.3928 18.7496 21.9635C18.7489 21.3881 18.5208 20.8364 18.1152 20.4295C17.7096 20.0226 17.1597 19.7937 16.5862 19.7931ZM16.5862 22.687C16.4435 22.687 16.3041 22.6445 16.1855 22.565C16.0669 22.4855 15.9745 22.3725 15.9199 22.2403C15.8653 22.1082 15.851 21.9627 15.8789 21.8223C15.9067 21.682 15.9754 21.5531 16.0762 21.4519C16.1771 21.3507 16.3056 21.2818 16.4455 21.2539C16.5854 21.226 16.7303 21.2403 16.8621 21.2951C16.9939 21.3498 17.1065 21.4426 17.1858 21.5616C17.265 21.6805 17.3073 21.8204 17.3073 21.9635C17.3071 22.1553 17.2311 22.3392 17.0959 22.4749C16.9607 22.6105 16.7774 22.6868 16.5862 22.687Z" fill="#58F93B"/>
</svg>
