<svg width="22" height="22" viewBox="0 0 22 22" fill="none" xmlns="http://www.w3.org/2000/svg">
<path d="M14.4915 6.5H14.4995M17.4915 6.5H17.4995M20.9995 6.283C20.9995 8.925 18.7605 11.067 15.9995 11.067C15.6742 11.067 15.3518 11.037 15.0325 10.977C14.8025 10.934 14.6875 10.913 14.6075 10.925C14.5275 10.937 14.4135 10.997 14.1875 11.118C13.5404 11.4629 12.7958 11.5788 12.0745 11.447C12.3502 11.1063 12.5371 10.7026 12.6185 10.272C12.6685 10.007 12.5445 9.75 12.3585 9.562C11.4907 8.69108 11.0022 7.51248 10.9995 6.283C10.9995 3.642 13.2385 1.5 15.9995 1.5C18.7605 1.5 20.9995 3.642 20.9995 6.283ZM6.5015 20.5H3.7175C3.3945 20.5 3.0695 20.454 2.7725 20.327C1.8065 19.912 1.3155 19.363 1.0875 19.02C1.02563 18.925 0.995225 18.8129 1.00061 18.6997C1.00599 18.5864 1.04689 18.4777 1.1175 18.389C2.2375 16.901 4.8375 16.003 6.50651 16.003C8.1745 16.003 10.7705 16.901 11.8905 18.389C12.0315 18.576 12.0505 18.825 11.9205 19.02C11.6915 19.363 11.2005 19.912 10.2345 20.327C9.93438 20.4478 9.61295 20.5066 9.28951 20.5H6.5015ZM9.28551 10.789C9.28498 11.1535 9.21266 11.5144 9.07266 11.851C8.93267 12.1876 8.72775 12.4934 8.46961 12.7508C8.21146 13.0082 7.90514 13.2122 7.56814 13.3512C7.23114 13.4902 6.87005 13.5615 6.50551 13.561C5.76961 13.5615 5.06362 13.2698 4.5427 12.7501C4.02178 12.2303 3.72857 11.5249 3.7275 10.789C3.7279 10.4244 3.80009 10.0635 3.93996 9.7269C4.07983 9.39025 4.28464 9.08445 4.5427 8.82695C4.80075 8.56945 5.107 8.3653 5.44395 8.22616C5.7809 8.08702 6.14196 8.01561 6.50651 8.016C6.87105 8.01561 7.23211 8.08702 7.56906 8.22616C7.90601 8.3653 8.21226 8.56945 8.47031 8.82695C8.72837 9.08445 8.93318 9.39025 9.07305 9.7269C9.21292 10.0635 9.28511 10.4244 9.28551 10.789Z" stroke="#58F93B" stroke-width="1.5" stroke-linecap="round" stroke-linejoin="round"/>
</svg>
