<svg width="39" height="60" viewBox="0 0 39 60" fill="none" xmlns="http://www.w3.org/2000/svg">
<path d="M13.4062 47.7812H25.5938V59.9688H13.4062V47.7812Z" fill="#58F93B"/>
<path fill-rule="evenodd" clip-rule="evenodd" d="M19.5 10C13.6744 10 9.75 15.2943 9.75 19.75H0C0 10.9653 7.293 0.25 19.5 0.25C31.668 0.25 39 10.6923 39 19.75C39 27.4427 33.5985 31.3428 30.2543 33.7559L29.6888 34.1654C26.0081 36.8564 24.375 38.3871 24.375 41.6875H14.625C14.625 33.0978 20.2849 28.9638 23.9216 26.3069L23.9362 26.2971C27.9922 23.3283 29.25 22.2021 29.25 19.75C29.25 15.1187 25.3695 10 19.5 10Z" fill="#58F93B"/>
</svg>
