<svg width="261" height="261" viewBox="0 0 261 261" fill="none" xmlns="http://www.w3.org/2000/svg">
<path d="M163.125 232.107C161.756 232.106 160.422 231.675 159.312 230.874C158.202 230.073 157.372 228.943 156.939 227.644L125.28 132.797L36.0702 101.229C34.7779 100.77 33.663 99.9157 32.8838 98.7872C32.1046 97.6587 31.7008 96.3134 31.7297 94.9424C31.7586 93.5713 32.2187 92.2442 33.0448 91.1496C33.8708 90.0549 35.0207 89.2483 36.3312 88.8444L220.832 32.0116C221.971 31.6622 223.184 31.6312 224.339 31.9221C225.494 32.2129 226.548 32.8145 227.386 33.6616C228.223 34.5087 228.813 35.5689 229.091 36.7273C229.369 37.8858 229.324 39.0982 228.962 40.2331L169.337 227.553C168.921 228.867 168.099 230.015 166.99 230.833C165.882 231.651 164.542 232.097 163.164 232.107H163.125ZM59.0251 95.5129L132.679 121.613C133.614 121.945 134.46 122.485 135.154 123.193C135.848 123.9 136.372 124.757 136.686 125.698L162.981 204.572L212.715 48.1545L59.0251 95.5129Z" fill="#091906"/>
<path d="M130.5 134.206C129.625 134.211 128.759 134.037 127.954 133.696C127.148 133.355 126.421 132.854 125.815 132.223C124.611 130.98 123.949 129.31 123.976 127.58C124.003 125.849 124.716 124.201 125.959 122.996L172.077 78.2999C172.693 77.7001 173.42 77.2274 174.218 76.9087C175.016 76.5899 175.869 76.4315 176.728 76.4424C177.587 76.4533 178.436 76.6334 179.225 76.9722C180.015 77.3111 180.73 77.8022 181.33 78.4174C181.93 79.0326 182.402 79.76 182.721 80.5579C183.04 81.3559 183.198 82.2088 183.187 83.0679C183.176 83.9271 182.996 84.7757 182.658 85.5653C182.319 86.3549 181.828 87.07 181.212 87.6698L135.081 132.379C133.852 133.564 132.207 134.22 130.5 134.206Z" fill="#091906"/>
<path d="M97.875 229.276C96.5325 229.276 95.2227 228.861 94.1243 228.09C93.0258 227.318 92.1921 226.226 91.7369 224.963C91.2817 223.7 91.227 222.328 91.5805 221.033C91.934 219.738 92.6783 218.583 93.712 217.726L126.337 190.726C127.671 189.637 129.382 189.12 131.096 189.287C132.81 189.454 134.388 190.292 135.487 191.618C136.585 192.944 137.115 194.651 136.961 196.366C136.807 198.081 135.981 199.666 134.663 200.774L102.038 227.775C100.867 228.745 99.3951 229.276 97.875 229.276Z" fill="#091906"/>
<path d="M38.2496 229.275C36.9585 229.275 35.6965 228.892 34.6233 228.174C33.5501 227.456 32.714 226.436 32.2208 225.243C31.7276 224.05 31.5995 222.737 31.8526 221.471C32.1058 220.205 32.7288 219.043 33.6429 218.131L93.2553 158.505C94.4805 157.28 96.1423 156.592 97.875 156.592C99.6077 156.592 101.269 157.28 102.495 158.505C103.72 159.731 104.408 161.392 104.408 163.125C104.408 164.858 103.72 166.52 102.495 167.745L42.8693 227.357C42.2633 227.965 41.5433 228.447 40.7505 228.777C39.9578 229.106 39.1079 229.275 38.2496 229.275Z" fill="#091906"/>
<path d="M38.2496 169.65C37.011 169.65 35.798 169.298 34.7523 168.634C33.7067 167.97 32.8716 167.022 32.3447 165.901C31.8178 164.78 31.6208 163.532 31.7767 162.304C31.9327 161.075 32.4351 159.916 33.2253 158.962L60.2258 126.337C61.3344 125.019 62.919 124.193 64.6341 124.039C66.3493 123.885 68.0559 124.415 69.3819 125.513C70.708 126.612 71.5459 128.19 71.713 129.904C71.8802 131.618 71.363 133.329 70.2743 134.663L43.2738 167.288C42.6616 168.027 41.8939 168.622 41.0254 169.03C40.157 169.438 39.2092 169.65 38.2496 169.65Z" fill="#091906"/>
</svg>
