<svg width="33" height="34" viewBox="0 0 33 34" fill="none" xmlns="http://www.w3.org/2000/svg">
<g clip-path="url(#clip0_11_381)">
<path d="M21.0111 29.0691C25.349 29.0691 28.8655 25.5526 28.8655 21.2147C28.8655 16.8769 25.349 13.3604 21.0111 13.3604C16.6733 13.3604 13.1567 16.8769 13.1567 21.2147C13.1567 25.5526 16.6733 29.0691 21.0111 29.0691Z" stroke="#58F93B" stroke-width="2" stroke-miterlimit="10"/>
<path d="M26.4231 26.9683L32.1189 32.6641" stroke="#58F93B" stroke-width="2" stroke-linecap="round" stroke-linejoin="round"/>
<path d="M14.6813 29.2306C11.9121 29.2306 9.20508 28.4094 6.90258 26.871C4.60008 25.3325 2.8055 23.1458 1.74578 20.5874C0.686052 18.029 0.408779 15.2138 0.949022 12.4978C1.48926 9.78182 2.82276 7.28703 4.78087 5.32891C6.73899 3.3708 9.23378 2.03731 11.9498 1.49706C14.6657 0.956822 17.4809 1.23409 20.0393 2.29382C22.5977 3.35354 24.7844 5.14812 26.3229 7.45062C27.8614 9.75312 28.6826 12.4601 28.6826 15.2293" stroke="#58F93B" stroke-width="2" stroke-linecap="round" stroke-linejoin="round"/>
<path d="M14.6813 1.22803V13.095" stroke="#58F93B" stroke-width="2" stroke-miterlimit="10" stroke-linecap="round"/>
<path d="M11.4298 22.3442C8.78258 22.479 6.16731 22.9843 3.66041 23.8454" stroke="#58F93B" stroke-width="2" stroke-linecap="round" stroke-linejoin="round"/>
<path d="M3.66039 6.61304C6.22325 7.59507 10.2016 8.22856 14.6813 8.22856C19.1609 8.22856 23.1393 7.59507 25.7022 6.61304" stroke="#58F93B" stroke-width="2" stroke-miterlimit="10"/>
<path d="M22.7485 11.3102C21.7315 5.48498 18.5046 1.22803 14.6813 1.22803C10.0417 1.22803 6.2805 7.49661 6.2805 15.2293C6.2805 22.962 10.0417 29.2306 14.6813 29.2306" stroke="#58F93B" stroke-width="2" stroke-linecap="round" stroke-linejoin="round"/>
<path d="M12.806 15.2292H0.557175" stroke="#58F93B" stroke-width="2" stroke-linecap="round" stroke-linejoin="round"/>
</g>
<defs>
<clipPath id="clip0_11_381">
<rect width="32.7835" height="32.7835" fill="white" transform="translate(0 0.545166)"/>
</clipPath>
</defs>
</svg>
