<svg width="33" height="34" viewBox="0 0 33 34" fill="none" xmlns="http://www.w3.org/2000/svg">
<g clip-path="url(#clip0_11_352)">
<path d="M32.7832 8.32803C32.7835 8.23476 32.7561 8.14349 32.7045 8.06576L28.1918 0.735376C28.132 0.63958 28.0489 0.56048 27.9503 0.505448C27.8516 0.450417 27.7407 0.421246 27.6277 0.420654H5.14276C5.0298 0.421246 4.91884 0.450417 4.8202 0.505448C4.72156 0.56048 4.63847 0.63958 4.57867 0.735376L0.0790607 8.0002C0.0277694 8.07316 0.000279276 8.16018 0.000350424 8.24935V11.3048C-0.00671894 11.7217 0.0932785 12.1336 0.290791 12.5009C0.488304 12.8682 0.776734 13.1788 1.12853 13.4029V32.5485C1.12853 32.7224 1.19764 32.8891 1.32065 33.0121C1.44366 33.1351 1.61049 33.2041 1.78445 33.2041H30.9991C31.1731 33.2041 31.3399 33.1351 31.4629 33.0121C31.5859 32.8891 31.655 32.7224 31.655 32.5485V13.4816C32.0058 13.2595 32.2937 12.9513 32.4912 12.5862C32.6888 12.2212 32.7893 11.8116 32.7832 11.3966V8.34115V8.32803ZM5.51008 1.73199H27.2604L30.9467 7.63302H1.82381L5.51008 1.73199ZM26.9718 8.94436V11.3441C26.9975 11.615 26.9157 11.8851 26.7438 12.0961C26.572 12.3071 26.324 12.4421 26.0535 12.4719H24.7417C24.2038 12.4719 23.9939 12.3145 23.9021 12.1834C23.8361 11.9088 23.8096 11.6262 23.8234 11.3441V8.94436H26.9718ZM22.4722 8.94436V11.3441C22.4979 11.615 22.416 11.8851 22.2442 12.0961C22.0724 12.3071 21.8244 12.4421 21.5539 12.4719H20.242C19.5336 12.4719 19.4549 12.1834 19.3762 11.908V11.8162C19.3762 11.6719 19.3762 11.5015 19.3762 11.3441V8.94436H22.4722ZM17.9726 8.94436V11.3441C17.9983 11.615 17.9164 11.8851 17.7446 12.0961C17.5728 12.3071 17.3248 12.4421 17.0543 12.4719H15.7424C15.4719 12.4421 15.2239 12.3071 15.0521 12.0961C14.8803 11.8851 14.7984 11.615 14.8241 11.3441V8.94436H17.9726ZM13.4861 8.94436V11.3441C13.5084 11.6143 13.4253 11.8826 13.2541 12.0928C13.0829 12.3031 12.8369 12.4389 12.5678 12.4719H11.2559C10.9854 12.4421 10.7374 12.3071 10.5656 12.0961C10.3938 11.8851 10.3119 11.615 10.3376 11.3441V8.94436H13.4861ZM8.98645 9.99343V11.3048C8.98816 11.4824 8.95019 11.6581 8.87529 11.8192C8.8004 11.9803 8.69048 12.1226 8.55355 12.2358C8.40662 12.3333 8.24154 12.4002 8.06817 12.4325H6.75633C6.48578 12.4027 6.23781 12.2678 6.06599 12.0568C5.89417 11.8457 5.81229 11.5756 5.83804 11.3048V8.94436H9.02581L8.98645 9.99343ZM2.13865 12.4981C1.88874 12.4477 1.66571 12.3082 1.51121 12.1055C1.35671 11.9028 1.2813 11.6508 1.29907 11.3966V8.94436H4.48684V11.3441C4.49101 11.5189 4.45539 11.6924 4.38267 11.8514C4.30994 12.0104 4.20202 12.1508 4.06705 12.2621C3.69599 12.4255 3.29108 12.4974 2.8864 12.4719H2.28295L2.13865 12.4981ZM13.3811 31.8928H6.92687V19.894H13.4861L13.3811 31.8928ZM30.3432 31.8928H14.693L14.7979 19.2384C14.7922 19.0623 14.7222 18.8943 14.6011 18.7663C14.4779 18.6476 14.3131 18.5817 14.142 18.5827H6.27095C6.09698 18.5827 5.93015 18.6518 5.80714 18.7747C5.68413 18.8977 5.61503 19.0645 5.61503 19.2384V31.8928H2.42725V13.8357H3.56855C4.0517 13.8213 4.51507 13.6406 4.88039 13.3242C4.93137 13.2984 4.9797 13.2677 5.0247 13.2324C5.24212 13.4438 5.50178 13.6067 5.78664 13.7107C6.0715 13.8147 6.37513 13.8572 6.67762 13.8357H7.98946C8.47226 13.8316 8.93763 13.6548 9.3013 13.3373C9.36718 13.3058 9.42888 13.2661 9.48495 13.2193C9.93505 13.6228 10.5202 13.8427 11.1248 13.8357H12.4366C12.6145 13.8361 12.7914 13.8096 12.9613 13.757C13.34 13.7041 13.7001 13.5601 14.0108 13.3373C14.3153 13.5624 14.6718 13.7068 15.0472 13.757C15.2213 13.8107 15.4027 13.8373 15.585 13.8357H16.8968C17.0742 13.8297 17.2503 13.8033 17.4216 13.757C17.7772 13.7076 18.1128 13.5626 18.3923 13.3373C18.8578 13.7017 19.4425 13.8794 20.0321 13.8357H21.344C21.8971 13.8627 22.443 13.7008 22.892 13.3767C23.2009 13.6115 23.5685 13.7567 23.9545 13.7963C24.1335 13.8108 24.3134 13.8108 24.4924 13.7963H26.0928H26.5258C26.9427 13.7599 27.3439 13.6202 27.6933 13.3898C27.8939 13.5076 28.1104 13.5959 28.3361 13.6521C28.6058 13.7832 28.902 13.8505 29.2019 13.8488H30.3432V31.8928ZM31.4714 11.3966C31.4887 11.6527 31.4114 11.9062 31.2543 12.1092C31.0972 12.3122 30.871 12.4505 30.6187 12.4981C30.5531 12.4981 30.4875 12.4981 30.5531 12.4981H29.8447C29.5008 12.5014 29.1576 12.4662 28.8215 12.3932C28.6507 12.284 28.5113 12.1323 28.417 11.953C28.3227 11.7736 28.2767 11.5728 28.2836 11.3703V8.94436H31.4714V11.3966Z" fill="#58F93B"/>
<path d="M26.4995 18.5828H17.6052C17.4335 18.5827 17.2687 18.65 17.146 18.7701C17.0234 18.8903 16.9528 19.0537 16.9493 19.2253L16.8575 25.2706C16.8529 25.3578 16.8669 25.445 16.8986 25.5264C16.9302 25.6078 16.9788 25.6815 17.0412 25.7427C17.1017 25.8067 17.175 25.8573 17.2564 25.8911C17.3377 25.925 17.4253 25.9415 17.5134 25.9394H26.4995C26.6735 25.9394 26.8403 25.8703 26.9633 25.7473C27.0863 25.6244 27.1554 25.4576 27.1554 25.2837V19.2384C27.1554 19.0645 27.0863 18.8978 26.9633 18.7748C26.8403 18.6518 26.6735 18.5828 26.4995 18.5828ZM25.8436 24.6805H18.1825L18.2612 19.9466H25.8436V24.6805Z" fill="#58F93B"/>
</g>
<defs>
<clipPath id="clip0_11_352">
<rect width="32.7835" height="32.7835" fill="white" transform="translate(0 0.420654)"/>
</clipPath>
</defs>
</svg>
