<svg width="68" height="70" viewBox="0 0 68 70" fill="none" xmlns="http://www.w3.org/2000/svg">
<path fill-rule="evenodd" clip-rule="evenodd" d="M61.6497 28.7818C60.5906 17.9168 54.1672 0.833374 34.3165 0.833374C14.4656 0.833374 8.0422 17.9168 6.98309 28.7818C3.26747 30.1919 0.816594 33.7593 0.833091 37.7334V42.5168C0.833091 47.8003 5.11631 52.0834 10.3997 52.0834C15.6833 52.0834 19.9665 47.8002 19.9665 42.5168V37.7334C19.9492 33.8449 17.5885 30.351 13.9872 28.8843C14.6706 22.5975 18.019 7.66676 34.3165 7.66676C50.614 7.66676 53.9281 22.5975 54.6115 28.8843C51.0176 30.3542 48.6687 33.8505 48.6665 37.7334V42.5168C48.6738 44.3169 49.187 46.0786 50.1476 47.6011C51.1082 49.1235 52.4774 50.3452 54.099 51.1268C52.664 53.8259 49.0081 57.4818 40.0222 58.575C38.226 55.8475 34.7508 54.7722 31.728 56.0088C28.7054 57.2452 26.98 60.4479 27.6104 63.6523C28.2408 66.8567 31.0506 69.1668 34.3165 69.1668C35.5819 69.1597 36.8206 68.8014 37.8944 68.1318C38.9681 67.4621 39.8349 66.5075 40.3981 65.3743C55.0556 63.7 59.7365 56.1493 61.2056 51.7075C65.1802 50.42 67.8533 46.6944 67.7997 42.5168V37.7334C67.8162 33.7593 65.3653 30.1919 61.6497 28.7818ZM13.1331 42.5168C13.1331 44.0262 11.9093 45.25 10.3997 45.25C8.89007 45.25 7.66648 44.0264 7.66648 42.5168V37.7334C7.66372 37.3727 7.73238 37.015 7.8685 36.6809C8.00462 36.3469 8.20552 36.0431 8.4596 35.7871C8.71369 35.531 9.01594 35.3278 9.34893 35.1891C9.68192 35.0505 10.0391 34.9791 10.3998 34.9791C10.7605 34.9791 11.1176 35.0505 11.4506 35.1891C11.7836 35.3278 12.0859 35.531 12.34 35.7871C12.594 36.0431 12.7949 36.3469 12.9311 36.6809C13.0672 37.015 13.1359 37.3727 13.1331 37.7334V42.5168ZM55.4997 37.7334C55.4997 36.2237 56.7235 35 58.2331 35C59.7427 35 60.9665 36.2237 60.9665 37.7334V42.5168C60.9665 44.0262 59.7427 45.25 58.2331 45.25C56.7235 45.25 55.4997 44.0264 55.4997 42.5168V37.7334Z" fill="#58F93B"/>
</svg>
