<svg width="30" height="36" viewBox="0 0 30 36" fill="none" xmlns="http://www.w3.org/2000/svg">
<path d="M15.0001 25.1431C14.4408 25.1433 13.8937 24.9794 13.4267 24.6716C12.9597 24.3638 12.5933 23.9257 12.3729 23.4117C11.912 23.3028 11.4583 23.1654 11.0144 23.0003L10.9901 22.9917C9.68661 22.5024 8.48352 21.7791 7.44007 20.8574C6.04205 19.6241 4.96695 18.0676 4.30851 16.3235C3.65007 14.5794 3.42827 12.7007 3.66247 10.8513C3.89666 9.00179 4.57973 7.23769 5.65212 5.71277C6.72451 4.18785 8.15366 2.94843 9.81495 2.10255C11.4762 1.25668 13.3192 0.830051 15.1832 0.85986C17.0472 0.889669 18.8757 1.37501 20.509 2.27357C22.1424 3.17213 23.5312 4.45663 24.5543 6.01505C25.5774 7.57348 26.2037 9.35852 26.3786 11.2145C26.4344 11.8045 25.9501 12.286 25.3572 12.286C24.7658 12.286 24.2929 11.8045 24.2244 11.216C24.0355 9.5921 23.4213 8.04686 22.4438 6.73648C21.4663 5.42609 20.1602 4.397 18.6574 3.75322C17.1547 3.10945 15.5087 2.87382 13.8857 3.07015C12.2627 3.26647 10.7203 3.8878 9.41443 4.87133C8.10855 5.85485 7.08548 7.1657 6.44863 8.67137C5.81178 10.177 5.58373 11.8242 5.78753 13.4462C5.99132 15.0683 6.61975 16.6078 7.60927 17.9091C8.59879 19.2105 9.91434 20.2275 11.4229 20.8574L11.4801 20.8817C11.7658 20.9988 12.0591 21.1022 12.3601 21.1917C12.6353 20.5211 13.155 19.9803 13.8141 19.6786C14.4731 19.3769 15.2222 19.337 15.9096 19.5669C16.5969 19.7968 17.1712 20.2794 17.5162 20.9169C17.8611 21.5543 17.9508 22.2991 17.7672 23.0003C17.6088 23.6137 17.2511 24.1571 16.7501 24.545C16.2492 24.9329 15.6336 25.1433 15.0001 25.1431ZM5.00007 23.0003H6.67007C5.87137 22.3777 5.14408 21.6686 4.5015 20.886C3.45823 21.0082 2.49617 21.5092 1.79801 22.294C1.09986 23.0788 0.714226 24.0927 0.714356 25.1431V26.1645C0.714356 31.476 6.72864 35.1431 15.0001 35.1431C23.2715 35.1431 29.2858 31.2745 29.2858 26.1645V25.1431C29.2858 24.0065 28.8343 22.9164 28.0305 22.1127C27.2268 21.3089 26.1367 20.8574 25.0001 20.8574H19.7929C20 21.5519 20.0536 22.283 19.9501 23.0003H25.0001L25.2072 23.0103C25.7372 23.0617 26.229 23.3087 26.5869 23.703C26.9447 24.0972 27.1429 24.6106 27.1429 25.1431V26.1645L27.1358 26.3945C26.9358 29.9945 22.0372 33.0003 15.0001 33.0003C7.69864 33.0003 2.85721 29.9845 2.85721 26.1645V25.1431L2.86721 24.936C2.91868 24.406 3.16562 23.9142 3.55992 23.5563C3.95421 23.1985 4.4676 23.0002 5.00007 23.0003ZM22.1429 12.286C22.1432 13.5799 21.7919 14.8497 21.1266 15.9595C20.4614 17.0694 19.5071 17.9777 18.3658 18.5874C17.445 17.7497 16.2449 17.2857 15.0001 17.286C15.6567 17.286 16.3069 17.1566 16.9135 16.9054C17.5201 16.6541 18.0713 16.2858 18.5356 15.8215C18.9999 15.3572 19.3682 14.806 19.6195 14.1994C19.8707 13.5928 20.0001 12.9426 20.0001 12.286C20.0001 11.6294 19.8707 10.9792 19.6195 10.3725C19.3682 9.76592 18.9999 9.21472 18.5356 8.75043C18.0713 8.28614 17.5201 7.91784 16.9135 7.66657C16.3069 7.41529 15.6567 7.28597 15.0001 7.28597C13.674 7.28597 12.4022 7.81275 11.4645 8.75043C10.5269 9.68811 10.0001 10.9599 10.0001 12.286C10.0001 13.612 10.5269 14.8838 11.4645 15.8215C12.4022 16.7592 13.674 17.286 15.0001 17.286C13.7029 17.286 12.5229 17.7803 11.6358 18.5888C10.4951 17.9796 9.54112 17.0721 8.87578 15.9631C8.3093 15.0194 7.9686 13.9575 7.88025 12.8603C7.79191 11.7631 7.95833 10.6604 8.36651 9.63819C8.7747 8.61597 9.4136 7.70191 10.2334 6.96736C11.0531 6.23282 12.0315 5.69766 13.0923 5.40367C14.153 5.10968 15.2673 5.06481 16.3482 5.27256C17.4291 5.48031 18.4474 5.93506 19.3236 6.60131C20.1998 7.26756 20.9101 8.12729 21.3992 9.11338C21.8882 10.0995 22.1428 11.1853 22.1429 12.286Z" fill="#58F93B"/>
</svg>
