<svg width="159" height="119" viewBox="0 0 159 119" fill="none" xmlns="http://www.w3.org/2000/svg">
<path fill-rule="evenodd" clip-rule="evenodd" d="M20.25 0.25C15.012 0.25 9.98848 2.3308 6.28464 6.03464C2.5808 9.73848 0.5 14.762 0.5 20V49.625C0.5 54.863 2.5808 59.8865 6.28464 63.5904C9.98848 67.2942 15.012 69.375 20.25 69.375H49.875C49.875 77.232 46.7538 84.7673 41.198 90.323C35.6423 95.8788 28.107 99 20.25 99H10.375C7.75599 99 5.24424 100.04 3.39232 101.892C1.5404 103.744 0.5 106.256 0.5 108.875C0.5 111.494 1.5404 114.006 3.39232 115.858C5.24424 117.71 7.75599 118.75 10.375 118.75H20.25C33.3451 118.75 45.9038 113.548 55.1634 104.288C64.423 95.0288 69.625 82.4701 69.625 69.375V20C69.625 14.762 67.5442 9.73848 63.8404 6.03464C60.1365 2.3308 55.113 0.25 49.875 0.25H20.25ZM109.125 0.25C103.887 0.25 98.8635 2.3308 95.1596 6.03464C91.4558 9.73848 89.375 14.762 89.375 20V49.625C89.375 54.863 91.4558 59.8865 95.1596 63.5904C98.8635 67.2942 103.887 69.375 109.125 69.375H138.75C138.75 77.232 135.629 84.7673 130.073 90.323C124.517 95.8788 116.982 99 109.125 99H99.25C96.631 99 94.1192 100.04 92.2673 101.892C90.4154 103.744 89.375 106.256 89.375 108.875C89.375 111.494 90.4154 114.006 92.2673 115.858C94.1192 117.71 96.631 118.75 99.25 118.75H109.125C122.22 118.75 134.779 113.548 144.038 104.288C153.298 95.0288 158.5 82.4701 158.5 69.375V20C158.5 14.762 156.419 9.73848 152.715 6.03464C149.012 2.3308 143.988 0.25 138.75 0.25H109.125Z" fill="#091906"/>
</svg>
