<svg width="44" height="123" viewBox="0 0 44 123" fill="none" xmlns="http://www.w3.org/2000/svg">
<g filter="url(#filter0_d_6_137)">
<path d="M14 115H40V94.9728C39.6691 94.9908 39.3357 95 39 95C29.6112 95 22 87.8366 22 79C22 78.3227 22.0447 77.6552 22.1315 77H4L4 105C4 110.523 8.47715 115 14 115Z" fill="#58F93B"/>
</g>
<path d="M3 10L3 36H23.0272C23.0092 35.6691 23 35.3357 23 35C23 25.6112 30.1634 18 39 18C39.6773 18 40.3448 18.0447 41 18.1315V0H13C7.47715 0 3 4.47715 3 10Z" fill="#58F93B"/>
<defs>
<filter id="filter0_d_6_137" x="0" y="77" width="44" height="46" filterUnits="userSpaceOnUse" color-interpolation-filters="sRGB">
<feFlood flood-opacity="0" result="BackgroundImageFix"/>
<feColorMatrix in="SourceAlpha" type="matrix" values="0 0 0 0 0 0 0 0 0 0 0 0 0 0 0 0 0 0 127 0" result="hardAlpha"/>
<feOffset dy="4"/>
<feGaussianBlur stdDeviation="2"/>
<feComposite in2="hardAlpha" operator="out"/>
<feColorMatrix type="matrix" values="0 0 0 0 0 0 0 0 0 0 0 0 0 0 0 0 0 0 0.25 0"/>
<feBlend mode="normal" in2="BackgroundImageFix" result="effect1_dropShadow_6_137"/>
<feBlend mode="normal" in="SourceGraphic" in2="effect1_dropShadow_6_137" result="shape"/>
</filter>
</defs>
</svg>
