<svg width="16" height="21" viewBox="0 0 16 21" fill="none" xmlns="http://www.w3.org/2000/svg">
<path d="M12.8 6.3C13.6487 6.3 14.4626 6.63187 15.0627 7.22261C15.6629 7.81335 16 8.61457 16 9.45V17.85C16 18.6854 15.6629 19.4866 15.0627 20.0774C14.4626 20.6681 13.6487 21 12.8 21H3.2C2.35131 21 1.53737 20.6681 0.937258 20.0774C0.337142 19.4866 0 18.6854 0 17.85V9.45C0 8.61457 0.337142 7.81335 0.937258 7.22261C1.53737 6.63187 2.35131 6.3 3.2 6.3V4.725C3.2 2.1 5.33333 0 8 0C10.6667 0 12.8 2.1 12.8 4.725V6.3ZM3.2 7.35C2.6342 7.35 2.09158 7.57125 1.69151 7.96508C1.29143 8.3589 1.06667 8.89304 1.06667 9.45V17.85C1.06667 18.407 1.29143 18.9411 1.69151 19.3349C2.09158 19.7288 2.6342 19.95 3.2 19.95H12.8C13.3658 19.95 13.9084 19.7288 14.3085 19.3349C14.7086 18.9411 14.9333 18.407 14.9333 17.85V9.45C14.9333 8.89304 14.7086 8.3589 14.3085 7.96508C13.9084 7.57125 13.3658 7.35 12.8 7.35H3.2ZM11.7333 6.3V4.725C11.7333 3.75033 11.34 2.81558 10.6399 2.12638C9.93973 1.43719 8.99014 1.05 8 1.05C7.00986 1.05 6.06027 1.43719 5.36014 2.12638C4.66 2.81558 4.26667 3.75033 4.26667 4.725V6.3H11.7333ZM8 12.6C7.57565 12.6 7.16869 12.7659 6.86863 13.0613C6.56857 13.3567 6.4 13.7573 6.4 14.175C6.4 14.5927 6.56857 14.9933 6.86863 15.2887C7.16869 15.5841 7.57565 15.75 8 15.75C8.42435 15.75 8.83131 15.5841 9.13137 15.2887C9.43143 14.9933 9.6 14.5927 9.6 14.175C9.6 13.7573 9.43143 13.3567 9.13137 13.0613C8.83131 12.7659 8.42435 12.6 8 12.6ZM8 11.55C8.70724 11.55 9.38552 11.8266 9.88562 12.3188C10.3857 12.8111 10.6667 13.4788 10.6667 14.175C10.6667 14.8712 10.3857 15.5389 9.88562 16.0312C9.38552 16.5234 8.70724 16.8 8 16.8C7.29276 16.8 6.61448 16.5234 6.11438 16.0312C5.61428 15.5389 5.33333 14.8712 5.33333 14.175C5.33333 13.4788 5.61428 12.8111 6.11438 12.3188C6.61448 11.8266 7.29276 11.55 8 11.55Z" fill="#58F93B"/>
</svg>
