<svg width="187" height="187" viewBox="0 0 187 187" fill="none" xmlns="http://www.w3.org/2000/svg">
<path d="M183.104 93.5C184.137 93.5 185.128 93.0895 185.859 92.3589C186.59 91.6283 187 90.6374 187 89.6042V19.4792C186.994 14.3149 184.94 9.36386 181.288 5.71215C177.636 2.06044 172.685 0.00618603 167.521 0L19.4792 0C14.3149 0.00618603 9.36386 2.06044 5.71215 5.71215C2.06044 9.36386 0.00618603 14.3149 0 19.4792L0 128.562C0.00618603 133.727 2.06044 138.678 5.71215 142.33C9.36386 145.981 14.3149 148.035 19.4792 148.042H62.3333V165.437L52.3795 172.059C51.8444 172.416 51.4061 172.9 51.1036 173.468C50.8011 174.036 50.6438 174.669 50.6458 175.312V179.208C50.6458 181.275 51.4667 183.257 52.928 184.718C54.3892 186.179 56.371 187 58.4375 187H128.562C130.629 187 132.611 186.179 134.072 184.718C135.533 183.257 136.354 181.275 136.354 179.208V175.312C136.354 174.671 136.196 174.04 135.894 173.475C135.591 172.909 135.154 172.427 134.621 172.071L124.667 165.437V159.729C124.667 158.696 124.256 157.705 123.526 156.974C122.795 156.244 121.804 155.833 120.771 155.833C119.738 155.833 118.747 156.244 118.016 156.974C117.285 157.705 116.875 158.696 116.875 159.729V167.521C116.875 168.162 117.033 168.793 117.336 169.359C117.638 169.924 118.075 170.406 118.609 170.762L128.562 177.397V179.208H58.4375V177.397L68.3914 170.774C68.9264 170.417 69.3647 169.933 69.6673 169.365C69.9698 168.798 70.127 168.164 70.125 167.521V148.042H167.521C172.685 148.035 177.636 145.981 181.288 142.33C184.94 138.678 186.994 133.727 187 128.562V109.083C187 108.05 186.59 107.059 185.859 106.329C185.128 105.598 184.137 105.188 183.104 105.188H23.375C22.3418 105.188 21.3508 105.598 20.6202 106.329C19.8896 107.059 19.4792 108.05 19.4792 109.083C19.4792 110.117 19.8896 111.107 20.6202 111.838C21.3508 112.569 22.3418 112.979 23.375 112.979H179.208V128.562C179.208 131.662 177.977 134.635 175.785 136.827C173.593 139.019 170.621 140.25 167.521 140.25H19.4792C16.3794 140.25 13.4067 139.019 11.2149 136.827C9.02302 134.635 7.79167 131.662 7.79167 128.562V19.4792C7.79167 16.3794 9.02302 13.4067 11.2149 11.2149C13.4067 9.02302 16.3794 7.79167 19.4792 7.79167H167.521C170.621 7.79167 173.593 9.02302 175.785 11.2149C177.977 13.4067 179.208 16.3794 179.208 19.4792V89.6042C179.208 90.6374 179.619 91.6283 180.349 92.3589C181.08 93.0895 182.071 93.5 183.104 93.5Z" fill="#4FE035"/>
<path d="M76.7744 28.4124C76.0438 27.682 75.053 27.2717 74.02 27.2717C72.987 27.2717 71.9962 27.682 71.2656 28.4124L47.8906 51.7874C47.1603 52.518 46.75 53.5087 46.75 54.5417C46.75 55.5748 47.1603 56.5655 47.8906 57.2961L71.2656 80.6711C72.0004 81.3807 72.9845 81.7734 74.006 81.7645C75.0275 81.7557 76.0046 81.3459 76.7269 80.6236C77.4492 79.9013 77.8589 78.9242 77.8678 77.9027C77.8767 76.8812 77.484 75.8971 76.7744 75.1624L56.1537 54.5417L76.7744 33.9211C77.5047 33.1905 77.915 32.1998 77.915 31.1667C77.915 30.1337 77.5047 29.143 76.7744 28.4124Z" fill="#4FE035"/>
<path d="M110.225 80.671C110.955 81.4013 111.946 81.8116 112.979 81.8116C114.012 81.8116 115.003 81.4013 115.733 80.671L139.108 57.296C139.839 56.5654 140.249 55.5746 140.249 54.5416C140.249 53.5086 139.839 52.5178 139.108 51.7873L115.733 28.4123C115.374 28.0402 114.944 27.7434 114.469 27.5392C113.993 27.335 113.482 27.2275 112.965 27.223C112.448 27.2186 111.935 27.3171 111.456 27.513C110.977 27.7089 110.542 27.9982 110.176 28.364C109.81 28.7298 109.521 29.1647 109.325 29.6435C109.129 30.1223 109.031 30.6353 109.035 31.1526C109.04 31.6699 109.147 32.1811 109.351 32.6564C109.556 33.1317 109.852 33.5616 110.225 33.921L130.845 54.5416L110.225 75.1622C109.494 75.8928 109.084 76.8836 109.084 77.9166C109.084 78.9496 109.494 79.9404 110.225 80.671Z" fill="#4FE035"/>
</svg>
